G75*
G70*
%OFA0B0*%
%FSLAX24Y24*%
%IPPOS*%
%LPD*%
%AMOC8*
5,1,8,0,0,1.08239X$1,22.5*
%
%ADD10C,0.0000*%
%ADD11C,0.1024*%
%ADD12C,0.0700*%
%ADD13OC8,0.0560*%
%ADD14C,0.0820*%
%ADD15R,0.0634X0.0634*%
%ADD16C,0.0634*%
%ADD17C,0.0050*%
%ADD18C,0.0780*%
%ADD19C,0.0594*%
%ADD20C,0.0480*%
%ADD21OC8,0.0670*%
%ADD22R,0.0780X0.0780*%
D10*
X004465Y000625D02*
X004465Y024495D01*
X041457Y024495D01*
X041457Y000625D01*
X004465Y000625D01*
X008709Y007023D02*
X008711Y007067D01*
X008717Y007111D01*
X008727Y007154D01*
X008740Y007196D01*
X008758Y007236D01*
X008779Y007275D01*
X008803Y007312D01*
X008830Y007347D01*
X008861Y007379D01*
X008894Y007408D01*
X008930Y007434D01*
X008968Y007456D01*
X009008Y007475D01*
X009049Y007491D01*
X009092Y007503D01*
X009135Y007511D01*
X009179Y007515D01*
X009223Y007515D01*
X009267Y007511D01*
X009310Y007503D01*
X009353Y007491D01*
X009394Y007475D01*
X009434Y007456D01*
X009472Y007434D01*
X009508Y007408D01*
X009541Y007379D01*
X009572Y007347D01*
X009599Y007312D01*
X009623Y007275D01*
X009644Y007236D01*
X009662Y007196D01*
X009675Y007154D01*
X009685Y007111D01*
X009691Y007067D01*
X009693Y007023D01*
X009691Y006979D01*
X009685Y006935D01*
X009675Y006892D01*
X009662Y006850D01*
X009644Y006810D01*
X009623Y006771D01*
X009599Y006734D01*
X009572Y006699D01*
X009541Y006667D01*
X009508Y006638D01*
X009472Y006612D01*
X009434Y006590D01*
X009394Y006571D01*
X009353Y006555D01*
X009310Y006543D01*
X009267Y006535D01*
X009223Y006531D01*
X009179Y006531D01*
X009135Y006535D01*
X009092Y006543D01*
X009049Y006555D01*
X009008Y006571D01*
X008968Y006590D01*
X008930Y006612D01*
X008894Y006638D01*
X008861Y006667D01*
X008830Y006699D01*
X008803Y006734D01*
X008779Y006771D01*
X008758Y006810D01*
X008740Y006850D01*
X008727Y006892D01*
X008717Y006935D01*
X008711Y006979D01*
X008709Y007023D01*
X008709Y019227D02*
X008711Y019271D01*
X008717Y019315D01*
X008727Y019358D01*
X008740Y019400D01*
X008758Y019440D01*
X008779Y019479D01*
X008803Y019516D01*
X008830Y019551D01*
X008861Y019583D01*
X008894Y019612D01*
X008930Y019638D01*
X008968Y019660D01*
X009008Y019679D01*
X009049Y019695D01*
X009092Y019707D01*
X009135Y019715D01*
X009179Y019719D01*
X009223Y019719D01*
X009267Y019715D01*
X009310Y019707D01*
X009353Y019695D01*
X009394Y019679D01*
X009434Y019660D01*
X009472Y019638D01*
X009508Y019612D01*
X009541Y019583D01*
X009572Y019551D01*
X009599Y019516D01*
X009623Y019479D01*
X009644Y019440D01*
X009662Y019400D01*
X009675Y019358D01*
X009685Y019315D01*
X009691Y019271D01*
X009693Y019227D01*
X009691Y019183D01*
X009685Y019139D01*
X009675Y019096D01*
X009662Y019054D01*
X009644Y019014D01*
X009623Y018975D01*
X009599Y018938D01*
X009572Y018903D01*
X009541Y018871D01*
X009508Y018842D01*
X009472Y018816D01*
X009434Y018794D01*
X009394Y018775D01*
X009353Y018759D01*
X009310Y018747D01*
X009267Y018739D01*
X009223Y018735D01*
X009179Y018735D01*
X009135Y018739D01*
X009092Y018747D01*
X009049Y018759D01*
X009008Y018775D01*
X008968Y018794D01*
X008930Y018816D01*
X008894Y018842D01*
X008861Y018871D01*
X008830Y018903D01*
X008803Y018938D01*
X008779Y018975D01*
X008758Y019014D01*
X008740Y019054D01*
X008727Y019096D01*
X008717Y019139D01*
X008711Y019183D01*
X008709Y019227D01*
X038237Y019227D02*
X038239Y019271D01*
X038245Y019315D01*
X038255Y019358D01*
X038268Y019400D01*
X038286Y019440D01*
X038307Y019479D01*
X038331Y019516D01*
X038358Y019551D01*
X038389Y019583D01*
X038422Y019612D01*
X038458Y019638D01*
X038496Y019660D01*
X038536Y019679D01*
X038577Y019695D01*
X038620Y019707D01*
X038663Y019715D01*
X038707Y019719D01*
X038751Y019719D01*
X038795Y019715D01*
X038838Y019707D01*
X038881Y019695D01*
X038922Y019679D01*
X038962Y019660D01*
X039000Y019638D01*
X039036Y019612D01*
X039069Y019583D01*
X039100Y019551D01*
X039127Y019516D01*
X039151Y019479D01*
X039172Y019440D01*
X039190Y019400D01*
X039203Y019358D01*
X039213Y019315D01*
X039219Y019271D01*
X039221Y019227D01*
X039219Y019183D01*
X039213Y019139D01*
X039203Y019096D01*
X039190Y019054D01*
X039172Y019014D01*
X039151Y018975D01*
X039127Y018938D01*
X039100Y018903D01*
X039069Y018871D01*
X039036Y018842D01*
X039000Y018816D01*
X038962Y018794D01*
X038922Y018775D01*
X038881Y018759D01*
X038838Y018747D01*
X038795Y018739D01*
X038751Y018735D01*
X038707Y018735D01*
X038663Y018739D01*
X038620Y018747D01*
X038577Y018759D01*
X038536Y018775D01*
X038496Y018794D01*
X038458Y018816D01*
X038422Y018842D01*
X038389Y018871D01*
X038358Y018903D01*
X038331Y018938D01*
X038307Y018975D01*
X038286Y019014D01*
X038268Y019054D01*
X038255Y019096D01*
X038245Y019139D01*
X038239Y019183D01*
X038237Y019227D01*
X038237Y007023D02*
X038239Y007067D01*
X038245Y007111D01*
X038255Y007154D01*
X038268Y007196D01*
X038286Y007236D01*
X038307Y007275D01*
X038331Y007312D01*
X038358Y007347D01*
X038389Y007379D01*
X038422Y007408D01*
X038458Y007434D01*
X038496Y007456D01*
X038536Y007475D01*
X038577Y007491D01*
X038620Y007503D01*
X038663Y007511D01*
X038707Y007515D01*
X038751Y007515D01*
X038795Y007511D01*
X038838Y007503D01*
X038881Y007491D01*
X038922Y007475D01*
X038962Y007456D01*
X039000Y007434D01*
X039036Y007408D01*
X039069Y007379D01*
X039100Y007347D01*
X039127Y007312D01*
X039151Y007275D01*
X039172Y007236D01*
X039190Y007196D01*
X039203Y007154D01*
X039213Y007111D01*
X039219Y007067D01*
X039221Y007023D01*
X039219Y006979D01*
X039213Y006935D01*
X039203Y006892D01*
X039190Y006850D01*
X039172Y006810D01*
X039151Y006771D01*
X039127Y006734D01*
X039100Y006699D01*
X039069Y006667D01*
X039036Y006638D01*
X039000Y006612D01*
X038962Y006590D01*
X038922Y006571D01*
X038881Y006555D01*
X038838Y006543D01*
X038795Y006535D01*
X038751Y006531D01*
X038707Y006531D01*
X038663Y006535D01*
X038620Y006543D01*
X038577Y006555D01*
X038536Y006571D01*
X038496Y006590D01*
X038458Y006612D01*
X038422Y006638D01*
X038389Y006667D01*
X038358Y006699D01*
X038331Y006734D01*
X038307Y006771D01*
X038286Y006810D01*
X038268Y006850D01*
X038255Y006892D01*
X038245Y006935D01*
X038239Y006979D01*
X038237Y007023D01*
D11*
X038729Y007023D03*
X038729Y019227D03*
X009201Y019227D03*
X009201Y007023D03*
D12*
X026465Y006125D03*
X026465Y002125D03*
X026366Y019227D03*
X025366Y019227D03*
X024366Y019227D03*
X023366Y019227D03*
X022366Y019227D03*
X021366Y019227D03*
X020366Y019227D03*
X019366Y019227D03*
X018366Y019227D03*
X017366Y019227D03*
X016366Y019227D03*
X015366Y019227D03*
X014366Y019227D03*
X013366Y019227D03*
X012366Y019227D03*
X011366Y019227D03*
X008965Y022625D03*
X006965Y022625D03*
D13*
X010965Y013125D03*
X010965Y012125D03*
X010965Y011125D03*
X010965Y010125D03*
X014965Y010125D03*
X014965Y011125D03*
X014965Y012125D03*
X014965Y013125D03*
X019465Y013125D03*
X021965Y013125D03*
X024965Y013125D03*
X024965Y009125D03*
X021965Y009125D03*
X019465Y009125D03*
X013465Y006125D03*
X013465Y002125D03*
X006965Y006625D03*
X005965Y006625D03*
X006465Y007375D03*
D14*
X038075Y004615D02*
X038855Y004615D01*
X038855Y002635D02*
X038075Y002635D01*
D15*
X006965Y021625D03*
D16*
X007965Y021625D03*
X008965Y021625D03*
X009965Y021625D03*
X010965Y021625D03*
X011965Y021625D03*
X012965Y021625D03*
X013965Y021625D03*
X014965Y021625D03*
X015965Y021625D03*
X016965Y021625D03*
X017965Y021625D03*
X018965Y021625D03*
X018965Y022625D03*
X017965Y022625D03*
X016965Y022625D03*
X015965Y022625D03*
X014965Y022625D03*
X013965Y022625D03*
X012965Y022625D03*
X011965Y022625D03*
X010965Y022625D03*
X009965Y022625D03*
X007965Y022625D03*
D17*
X011919Y005085D02*
X011957Y005090D01*
X011997Y005086D01*
X012035Y005074D01*
X012070Y005054D01*
X012099Y005026D01*
X012121Y004992D01*
X012135Y004955D01*
X012141Y004915D01*
X012136Y004876D01*
X012122Y004838D01*
X012100Y004805D01*
X012072Y004778D01*
X012038Y004757D01*
X012000Y004745D01*
X011961Y004741D01*
X011923Y004746D01*
X011886Y004759D01*
X011854Y004779D01*
X011827Y004807D01*
X011806Y004840D01*
X011794Y004876D01*
X011790Y004915D01*
X011793Y004953D01*
X011805Y004989D01*
X011825Y005022D01*
X011851Y005050D01*
X011883Y005071D01*
X011919Y005085D01*
X011844Y005042D02*
X012081Y005042D01*
X012120Y004994D02*
X011808Y004994D01*
X011793Y004945D02*
X012137Y004945D01*
X012139Y004897D02*
X011792Y004897D01*
X011804Y004848D02*
X012126Y004848D01*
X012095Y004800D02*
X011834Y004800D01*
X011907Y004751D02*
X012020Y004751D01*
X011957Y003510D02*
X011997Y003506D01*
X012035Y003494D01*
X012070Y003474D01*
X012099Y003446D01*
X012121Y003412D01*
X012135Y003375D01*
X012141Y003335D01*
X012136Y003296D01*
X012122Y003258D01*
X012100Y003225D01*
X012072Y003198D01*
X011856Y003198D01*
X011854Y003199D02*
X011827Y003227D01*
X011806Y003260D01*
X011794Y003296D01*
X011790Y003335D01*
X011793Y003373D01*
X011805Y003409D01*
X011825Y003442D01*
X011851Y003470D01*
X011883Y003491D01*
X011919Y003505D01*
X011957Y003510D01*
X011880Y003489D02*
X012044Y003489D01*
X012102Y003440D02*
X011824Y003440D01*
X011799Y003392D02*
X012129Y003392D01*
X012140Y003343D02*
X011791Y003343D01*
X011794Y003295D02*
X012136Y003295D01*
X012114Y003246D02*
X011815Y003246D01*
X011854Y003199D02*
X011886Y003179D01*
X011923Y003166D01*
X011961Y003161D01*
X012000Y003165D01*
X012038Y003177D01*
X012072Y003198D01*
D18*
X019685Y002735D03*
X022245Y002735D03*
X024465Y002625D03*
X024465Y003625D03*
X024465Y004625D03*
X022245Y004515D03*
X019685Y004515D03*
X006965Y010125D03*
X006965Y011125D03*
X006965Y012125D03*
X006965Y013125D03*
X006965Y014125D03*
X029965Y021625D03*
X030965Y021625D03*
X034965Y021625D03*
X035965Y021625D03*
D19*
X035465Y005125D03*
X033465Y005125D03*
X031465Y005125D03*
X028465Y005125D03*
X028465Y002125D03*
X031465Y002125D03*
X033465Y002125D03*
X035465Y002125D03*
D20*
X017465Y004125D03*
X017465Y004125D03*
X016465Y004125D03*
X015465Y004125D03*
X015465Y004125D03*
X016465Y005125D03*
D21*
X009465Y004125D03*
X007465Y004125D03*
D22*
X028965Y021625D03*
X033965Y021625D03*
M02*
