%
M48
M72
T01C0.0236
T02C0.0240
T03C0.0320
T04C0.0354
T05C0.0394
T06C0.0400
T07C0.0440
T08C0.0520
T09C0.0984
%
T01
X8465Y21125
T02
X5465Y22125
X7465Y18625
X9965Y16125
X12465Y16625
X8965Y13625
X15465Y4125
X15465Y4125
X16465Y4125
X17465Y4125
X17465Y4125
X16465Y5125
X22465Y22125
T03
X10965Y13125
X10965Y12125
X10965Y11125
X10965Y10125
X14965Y10125
X14965Y11125
X14965Y12125
X14965Y13125
X19465Y13125
X21965Y13125
X24965Y13125
X24965Y9125
X21965Y9125
X19465Y9125
X13465Y6125
X6965Y6625
X5965Y6625
X6465Y7375
X7465Y4125
X9465Y4125
X13465Y2125
X24465Y2625
X24465Y3625
X24465Y4625
T04
X11965Y4912
X11965Y3337
X28465Y2125
X31465Y2125
X33465Y2125
X35465Y2125
X35465Y5125
X33465Y5125
X31465Y5125
X28465Y5125
T05
X6965Y22625
X7965Y22625
X8965Y22625
X9965Y22625
X10965Y22625
X11965Y22625
X12965Y22625
X13965Y22625
X14965Y22625
X15965Y22625
X16965Y22625
X17965Y22625
X18965Y22625
X18965Y21625
X17965Y21625
X16965Y21625
X15965Y21625
X14965Y21625
X13965Y21625
X12965Y21625
X11965Y21625
X10965Y21625
X9965Y21625
X8965Y21625
X7965Y21625
X6965Y21625
X11366Y19227
X12366Y19227
X13366Y19227
X14366Y19227
X15366Y19227
X16366Y19227
X17366Y19227
X18366Y19227
X19366Y19227
X20366Y19227
X21366Y19227
X22366Y19227
X23366Y19227
X24366Y19227
X25366Y19227
X26366Y19227
T06
X6965Y10125
X6965Y11125
X6965Y12125
X6965Y13125
X6965Y14125
X28965Y21625
X29965Y21625
X30965Y21625
X33965Y21625
X34965Y21625
X35965Y21625
X22245Y4515
X19685Y4515
X19685Y2735
X22245Y2735
T07
X26465Y6125
X26465Y2125
T08
X38465Y4615
X38465Y2635
T09
X9201Y19227
X9201Y7023
X38729Y7023
X38729Y19227
M30
