G75*
G70*
%OFA0B0*%
%FSLAX24Y24*%
%IPPOS*%
%LPD*%
%AMOC8*
5,1,8,0,0,1.08239X$1,22.5*
%
%ADD10C,0.0000*%
%ADD11C,0.0080*%
%ADD12C,0.0120*%
%ADD13C,0.0660*%
%ADD14OC8,0.0520*%
%ADD15C,0.0780*%
%ADD16R,0.0594X0.0594*%
%ADD17C,0.0594*%
%ADD18C,0.0740*%
%ADD19C,0.0554*%
%ADD20C,0.0440*%
%ADD21OC8,0.0630*%
%ADD22R,0.0740X0.0740*%
%ADD23C,0.0160*%
%ADD24C,0.0100*%
%ADD25C,0.0360*%
%ADD26OC8,0.0356*%
D10*
X004465Y000625D02*
X004465Y024495D01*
X041457Y024495D01*
X041457Y000625D01*
X004465Y000625D01*
X008709Y007023D02*
X008711Y007067D01*
X008717Y007111D01*
X008727Y007154D01*
X008740Y007196D01*
X008758Y007236D01*
X008779Y007275D01*
X008803Y007312D01*
X008830Y007347D01*
X008861Y007379D01*
X008894Y007408D01*
X008930Y007434D01*
X008968Y007456D01*
X009008Y007475D01*
X009049Y007491D01*
X009092Y007503D01*
X009135Y007511D01*
X009179Y007515D01*
X009223Y007515D01*
X009267Y007511D01*
X009310Y007503D01*
X009353Y007491D01*
X009394Y007475D01*
X009434Y007456D01*
X009472Y007434D01*
X009508Y007408D01*
X009541Y007379D01*
X009572Y007347D01*
X009599Y007312D01*
X009623Y007275D01*
X009644Y007236D01*
X009662Y007196D01*
X009675Y007154D01*
X009685Y007111D01*
X009691Y007067D01*
X009693Y007023D01*
X009691Y006979D01*
X009685Y006935D01*
X009675Y006892D01*
X009662Y006850D01*
X009644Y006810D01*
X009623Y006771D01*
X009599Y006734D01*
X009572Y006699D01*
X009541Y006667D01*
X009508Y006638D01*
X009472Y006612D01*
X009434Y006590D01*
X009394Y006571D01*
X009353Y006555D01*
X009310Y006543D01*
X009267Y006535D01*
X009223Y006531D01*
X009179Y006531D01*
X009135Y006535D01*
X009092Y006543D01*
X009049Y006555D01*
X009008Y006571D01*
X008968Y006590D01*
X008930Y006612D01*
X008894Y006638D01*
X008861Y006667D01*
X008830Y006699D01*
X008803Y006734D01*
X008779Y006771D01*
X008758Y006810D01*
X008740Y006850D01*
X008727Y006892D01*
X008717Y006935D01*
X008711Y006979D01*
X008709Y007023D01*
X008709Y019227D02*
X008711Y019271D01*
X008717Y019315D01*
X008727Y019358D01*
X008740Y019400D01*
X008758Y019440D01*
X008779Y019479D01*
X008803Y019516D01*
X008830Y019551D01*
X008861Y019583D01*
X008894Y019612D01*
X008930Y019638D01*
X008968Y019660D01*
X009008Y019679D01*
X009049Y019695D01*
X009092Y019707D01*
X009135Y019715D01*
X009179Y019719D01*
X009223Y019719D01*
X009267Y019715D01*
X009310Y019707D01*
X009353Y019695D01*
X009394Y019679D01*
X009434Y019660D01*
X009472Y019638D01*
X009508Y019612D01*
X009541Y019583D01*
X009572Y019551D01*
X009599Y019516D01*
X009623Y019479D01*
X009644Y019440D01*
X009662Y019400D01*
X009675Y019358D01*
X009685Y019315D01*
X009691Y019271D01*
X009693Y019227D01*
X009691Y019183D01*
X009685Y019139D01*
X009675Y019096D01*
X009662Y019054D01*
X009644Y019014D01*
X009623Y018975D01*
X009599Y018938D01*
X009572Y018903D01*
X009541Y018871D01*
X009508Y018842D01*
X009472Y018816D01*
X009434Y018794D01*
X009394Y018775D01*
X009353Y018759D01*
X009310Y018747D01*
X009267Y018739D01*
X009223Y018735D01*
X009179Y018735D01*
X009135Y018739D01*
X009092Y018747D01*
X009049Y018759D01*
X009008Y018775D01*
X008968Y018794D01*
X008930Y018816D01*
X008894Y018842D01*
X008861Y018871D01*
X008830Y018903D01*
X008803Y018938D01*
X008779Y018975D01*
X008758Y019014D01*
X008740Y019054D01*
X008727Y019096D01*
X008717Y019139D01*
X008711Y019183D01*
X008709Y019227D01*
X038237Y019227D02*
X038239Y019271D01*
X038245Y019315D01*
X038255Y019358D01*
X038268Y019400D01*
X038286Y019440D01*
X038307Y019479D01*
X038331Y019516D01*
X038358Y019551D01*
X038389Y019583D01*
X038422Y019612D01*
X038458Y019638D01*
X038496Y019660D01*
X038536Y019679D01*
X038577Y019695D01*
X038620Y019707D01*
X038663Y019715D01*
X038707Y019719D01*
X038751Y019719D01*
X038795Y019715D01*
X038838Y019707D01*
X038881Y019695D01*
X038922Y019679D01*
X038962Y019660D01*
X039000Y019638D01*
X039036Y019612D01*
X039069Y019583D01*
X039100Y019551D01*
X039127Y019516D01*
X039151Y019479D01*
X039172Y019440D01*
X039190Y019400D01*
X039203Y019358D01*
X039213Y019315D01*
X039219Y019271D01*
X039221Y019227D01*
X039219Y019183D01*
X039213Y019139D01*
X039203Y019096D01*
X039190Y019054D01*
X039172Y019014D01*
X039151Y018975D01*
X039127Y018938D01*
X039100Y018903D01*
X039069Y018871D01*
X039036Y018842D01*
X039000Y018816D01*
X038962Y018794D01*
X038922Y018775D01*
X038881Y018759D01*
X038838Y018747D01*
X038795Y018739D01*
X038751Y018735D01*
X038707Y018735D01*
X038663Y018739D01*
X038620Y018747D01*
X038577Y018759D01*
X038536Y018775D01*
X038496Y018794D01*
X038458Y018816D01*
X038422Y018842D01*
X038389Y018871D01*
X038358Y018903D01*
X038331Y018938D01*
X038307Y018975D01*
X038286Y019014D01*
X038268Y019054D01*
X038255Y019096D01*
X038245Y019139D01*
X038239Y019183D01*
X038237Y019227D01*
X038237Y007023D02*
X038239Y007067D01*
X038245Y007111D01*
X038255Y007154D01*
X038268Y007196D01*
X038286Y007236D01*
X038307Y007275D01*
X038331Y007312D01*
X038358Y007347D01*
X038389Y007379D01*
X038422Y007408D01*
X038458Y007434D01*
X038496Y007456D01*
X038536Y007475D01*
X038577Y007491D01*
X038620Y007503D01*
X038663Y007511D01*
X038707Y007515D01*
X038751Y007515D01*
X038795Y007511D01*
X038838Y007503D01*
X038881Y007491D01*
X038922Y007475D01*
X038962Y007456D01*
X039000Y007434D01*
X039036Y007408D01*
X039069Y007379D01*
X039100Y007347D01*
X039127Y007312D01*
X039151Y007275D01*
X039172Y007236D01*
X039190Y007196D01*
X039203Y007154D01*
X039213Y007111D01*
X039219Y007067D01*
X039221Y007023D01*
X039219Y006979D01*
X039213Y006935D01*
X039203Y006892D01*
X039190Y006850D01*
X039172Y006810D01*
X039151Y006771D01*
X039127Y006734D01*
X039100Y006699D01*
X039069Y006667D01*
X039036Y006638D01*
X039000Y006612D01*
X038962Y006590D01*
X038922Y006571D01*
X038881Y006555D01*
X038838Y006543D01*
X038795Y006535D01*
X038751Y006531D01*
X038707Y006531D01*
X038663Y006535D01*
X038620Y006543D01*
X038577Y006555D01*
X038536Y006571D01*
X038496Y006590D01*
X038458Y006612D01*
X038422Y006638D01*
X038389Y006667D01*
X038358Y006699D01*
X038331Y006734D01*
X038307Y006771D01*
X038286Y006810D01*
X038268Y006850D01*
X038255Y006892D01*
X038245Y006935D01*
X038239Y006979D01*
X038237Y007023D01*
D11*
X034688Y011165D02*
X034381Y011165D01*
X034227Y011318D01*
X034841Y011932D01*
X034841Y011318D01*
X034688Y011165D01*
X034227Y011318D02*
X034227Y011932D01*
X034381Y012086D01*
X034688Y012086D01*
X034841Y011932D01*
X033921Y011165D02*
X033307Y011165D01*
X033614Y011165D02*
X033614Y012086D01*
X033307Y011779D01*
X033000Y011318D02*
X033000Y011165D01*
X032846Y011165D01*
X032846Y011318D01*
X033000Y011318D01*
X032539Y011318D02*
X032386Y011165D01*
X032079Y011165D01*
X031926Y011318D01*
X032539Y011932D01*
X032539Y011318D01*
X031926Y011318D02*
X031926Y011932D01*
X032079Y012086D01*
X032386Y012086D01*
X032539Y011932D01*
X031619Y011779D02*
X031312Y011165D01*
X031005Y011779D01*
X032658Y013318D02*
X032812Y013165D01*
X032658Y013318D02*
X032658Y013932D01*
X032505Y013779D02*
X032812Y013779D01*
X033119Y013625D02*
X033272Y013779D01*
X033579Y013779D01*
X033733Y013625D01*
X033733Y013472D01*
X033119Y013472D01*
X033119Y013625D02*
X033119Y013318D01*
X033272Y013165D01*
X033579Y013165D01*
X034039Y013165D02*
X034039Y013779D01*
X034193Y013779D01*
X034346Y013625D01*
X034500Y013779D01*
X034653Y013625D01*
X034653Y013165D01*
X034346Y013165D02*
X034346Y013625D01*
X034960Y013779D02*
X035421Y013779D01*
X035574Y013625D01*
X035574Y013318D01*
X035421Y013165D01*
X034960Y013165D01*
X034960Y012858D02*
X034960Y013779D01*
X035881Y013625D02*
X035881Y013318D01*
X036034Y013165D01*
X036341Y013165D01*
X036495Y013472D02*
X035881Y013472D01*
X035881Y013625D02*
X036034Y013779D01*
X036341Y013779D01*
X036495Y013625D01*
X036495Y013472D01*
X036802Y013472D02*
X037109Y013779D01*
X037262Y013779D01*
X036802Y013779D02*
X036802Y013165D01*
X036722Y015665D02*
X036415Y015665D01*
X036262Y015818D01*
X036262Y016125D01*
X036415Y016279D01*
X036722Y016279D01*
X036876Y016125D01*
X036876Y015818D01*
X036722Y015665D01*
X035955Y015665D02*
X035802Y015818D01*
X035802Y016432D01*
X035955Y016279D02*
X035648Y016279D01*
X035341Y016279D02*
X035188Y016279D01*
X034881Y015972D01*
X034881Y015665D02*
X034881Y016279D01*
X034574Y016125D02*
X034574Y015972D01*
X033960Y015972D01*
X033960Y016125D02*
X033960Y015818D01*
X034114Y015665D01*
X034421Y015665D01*
X034574Y016125D02*
X034421Y016279D01*
X034114Y016279D01*
X033960Y016125D01*
X033653Y016125D02*
X033653Y015818D01*
X033500Y015665D01*
X033039Y015665D01*
X033039Y016586D01*
X033039Y016279D02*
X033500Y016279D01*
X033653Y016125D01*
X032733Y015665D02*
X032426Y015665D01*
X032579Y015665D02*
X032579Y016586D01*
X032426Y016586D01*
X032119Y016279D02*
X032119Y015665D01*
X032119Y016125D02*
X031505Y016125D01*
X031505Y016279D02*
X031812Y016586D01*
X032119Y016279D01*
X031505Y016279D02*
X031505Y015665D01*
D12*
X031946Y014566D02*
X031946Y013415D01*
X031715Y013185D01*
X031255Y013185D01*
X031025Y013415D01*
X031025Y014566D01*
X020575Y004515D02*
X019685Y004515D01*
X019295Y004125D01*
X017465Y004125D01*
X020575Y004515D02*
X021465Y003625D01*
X022465Y003625D01*
X023465Y002625D01*
X024465Y002625D01*
X026965Y003625D02*
X028465Y003625D01*
X009965Y016125D02*
X009965Y018625D01*
X010465Y019125D01*
X010465Y019625D01*
X009465Y020625D01*
X008965Y020625D01*
X008465Y021125D02*
X008465Y016625D01*
D13*
X011366Y019227D03*
X012366Y019227D03*
X013366Y019227D03*
X014366Y019227D03*
X015366Y019227D03*
X016366Y019227D03*
X017366Y019227D03*
X018366Y019227D03*
X019366Y019227D03*
X020366Y019227D03*
X021366Y019227D03*
X022366Y019227D03*
X023366Y019227D03*
X024366Y019227D03*
X025366Y019227D03*
X026366Y019227D03*
X008965Y022625D03*
X006965Y022625D03*
X026465Y006125D03*
X026465Y002125D03*
D14*
X024965Y009125D03*
X021965Y009125D03*
X019465Y009125D03*
X014965Y010125D03*
X014965Y011125D03*
X014965Y012125D03*
X014965Y013125D03*
X010965Y013125D03*
X010965Y012125D03*
X010965Y011125D03*
X010965Y010125D03*
X006465Y007375D03*
X006965Y006625D03*
X005965Y006625D03*
X013465Y006125D03*
X013465Y002125D03*
X019465Y013125D03*
X021965Y013125D03*
X024965Y013125D03*
D15*
X038075Y004615D02*
X038855Y004615D01*
X038855Y002635D02*
X038075Y002635D01*
D16*
X006965Y021625D03*
D17*
X007965Y021625D03*
X008965Y021625D03*
X009965Y021625D03*
X010965Y021625D03*
X011965Y021625D03*
X012965Y021625D03*
X013965Y021625D03*
X014965Y021625D03*
X015965Y021625D03*
X016965Y021625D03*
X017965Y021625D03*
X018965Y021625D03*
X018965Y022625D03*
X017965Y022625D03*
X016965Y022625D03*
X015965Y022625D03*
X014965Y022625D03*
X013965Y022625D03*
X012965Y022625D03*
X011965Y022625D03*
X010965Y022625D03*
X009965Y022625D03*
X007965Y022625D03*
D18*
X006965Y014125D03*
X006965Y013125D03*
X006965Y012125D03*
X006965Y011125D03*
X006965Y010125D03*
X011965Y004912D03*
X011965Y003337D03*
X019685Y002735D03*
X022245Y002735D03*
X024465Y002625D03*
X024465Y003625D03*
X024465Y004625D03*
X022245Y004515D03*
X019685Y004515D03*
X029965Y021625D03*
X030965Y021625D03*
X034965Y021625D03*
X035965Y021625D03*
D19*
X035465Y005125D03*
X033465Y005125D03*
X031465Y005125D03*
X028465Y005125D03*
X028465Y002125D03*
X031465Y002125D03*
X033465Y002125D03*
X035465Y002125D03*
D20*
X017465Y004125D03*
X017465Y004125D03*
X016465Y004125D03*
X015465Y004125D03*
X015465Y004125D03*
X016465Y005125D03*
D21*
X009465Y004125D03*
X007465Y004125D03*
D22*
X028965Y021625D03*
X033965Y021625D03*
D23*
X032965Y021625D01*
X032465Y021625D01*
X029965Y019125D01*
X026469Y019125D01*
X026366Y019227D01*
X026567Y019227D01*
X028965Y021625D01*
X032465Y019125D02*
X036465Y019125D01*
X036965Y019625D01*
X036965Y023125D01*
X012465Y023125D01*
X012465Y022125D01*
X011465Y022125D01*
X010965Y022625D01*
X011366Y019227D02*
X011465Y019129D01*
X011465Y017625D01*
X014465Y017625D01*
X015366Y018526D01*
X015366Y019227D01*
X011465Y017625D02*
X011465Y015125D01*
X007465Y015125D01*
X006965Y014625D01*
X006965Y014125D01*
X014465Y009625D02*
X014965Y010125D01*
X015465Y009625D01*
X015465Y004125D01*
X019685Y002735D02*
X020355Y002735D01*
X020465Y002625D01*
X021465Y001625D01*
X025465Y001625D01*
X025465Y002125D01*
X026965Y003625D01*
X028465Y003625D02*
X029965Y005125D01*
X029965Y006125D01*
X027965Y008125D01*
X025965Y008125D01*
X024965Y009125D01*
X024965Y011625D01*
X026965Y013625D01*
X032465Y019125D01*
X024965Y013125D02*
X023965Y012125D01*
X014965Y012125D01*
X014965Y011125D01*
X014965Y010125D01*
X014465Y009625D02*
X014465Y008125D01*
X011465Y008125D01*
X008465Y008125D01*
X006965Y006625D01*
X005965Y006625D02*
X005965Y005625D01*
X007465Y004125D01*
X014965Y012125D02*
X014965Y013125D01*
X024465Y004625D02*
X025965Y006125D01*
X026465Y006125D01*
X026465Y002125D02*
X028465Y002125D01*
X031465Y002125D02*
X032465Y002125D01*
X033965Y003625D01*
X035965Y003625D01*
X036465Y004125D01*
X036965Y004625D01*
X038465Y004625D01*
X038465Y002635D02*
X037955Y002125D01*
X035465Y002125D01*
D24*
X038465Y002625D02*
X038465Y002635D01*
X038465Y004615D02*
X038465Y004625D01*
X021965Y013125D02*
X020465Y013125D01*
X016965Y016625D01*
X012465Y016625D01*
X014965Y014625D02*
X008465Y014625D01*
X007965Y014125D01*
X007965Y012625D01*
X006465Y012625D01*
X005965Y013125D01*
X005965Y022625D01*
X006465Y023125D01*
X009465Y023125D01*
X009965Y022625D01*
X009965Y021625D02*
X011465Y020125D01*
X013465Y020125D01*
X014465Y019125D01*
X014366Y019227D01*
X012965Y021625D02*
X013465Y022125D01*
X019465Y022125D01*
X021465Y020125D01*
X021465Y019125D01*
X021366Y019227D01*
X022465Y022125D02*
X025465Y019125D01*
X025366Y019227D01*
X026366Y019227D02*
X026465Y019125D01*
X019465Y013125D02*
X016465Y013125D01*
X014965Y014625D01*
X010965Y012125D02*
X008965Y012125D01*
X008965Y013625D01*
X006965Y013125D02*
X006465Y013625D01*
X006465Y014625D01*
X008465Y016625D01*
X007465Y018625D02*
X007465Y021125D01*
X007965Y021625D01*
X008965Y021625D02*
X008965Y020625D01*
X010965Y023625D02*
X011965Y022625D01*
X010965Y023625D02*
X005965Y023625D01*
X004965Y022625D01*
X004965Y012125D01*
X006965Y010125D01*
X010965Y010125D01*
X010965Y011125D02*
X006965Y011125D01*
X005465Y012625D01*
X005465Y022125D01*
X006965Y012125D02*
X008965Y012125D01*
X016465Y005125D02*
X016465Y004125D01*
X013465Y002125D02*
X011965Y003625D01*
X011965Y003337D01*
D25*
X008965Y013625D03*
X009965Y016125D03*
X012465Y016625D03*
X007465Y018625D03*
X005465Y022125D03*
X022465Y022125D03*
D26*
X008465Y021125D03*
M02*
