solid nespi-buttoncarrier
facet normal -1.5942546588220978e-07 0.777399891555085 0.6290066840742764
  outer loop
    vertex 40.440540313720696 16.139328002929688 8.991840362548828
    vertex 42.30421829223633 19.957544326782227 4.272842884063721
    vertex 40.440540313720696 19.957544326782227 4.272842884063721
  endloop
endfacet
facet normal -1.5942546588220978e-07 0.777399891555085 0.6290066840742764
  outer loop
    vertex 42.30421829223633 19.957544326782227 4.272842884063721
    vertex 40.440540313720696 16.139328002929688 8.991840362548828
    vertex 42.30421829223633 16.139328002929688 8.991840362548828
  endloop
endfacet
facet normal 0.0 0.7867742804361093 0.617240821433776
  outer loop
    vertex 9.216237420460537 12.437175670918714 13.710838317871092
    vertex 11.245976800343348 16.139327923115978 8.991840362548828
    vertex 9.216237420460537 16.139327923115978 8.991840362548828
  endloop
endfacet
facet normal 0.0 0.7867742804361093 0.617240821433776
  outer loop
    vertex 11.245976800343348 16.139327923115978 8.991840362548828
    vertex 9.216237420460537 12.437175670918714 13.710838317871092
    vertex 11.245976800343348 12.437175670918714 13.710838317871092
  endloop
endfacet
facet normal 0.0 0.7867742804361091 0.6172408214337762
  outer loop
    vertex 40.440540313720696 12.437175750732422 13.710838317871092
    vertex 42.30421829223633 16.139328002929688 8.991840362548828
    vertex 40.440540313720696 16.139328002929688 8.991840362548828
  endloop
endfacet
facet normal 0.0 0.7867742804361091 0.6172408214337762
  outer loop
    vertex 42.30421829223633 16.139328002929688 8.991840362548828
    vertex 40.440540313720696 12.437175750732422 13.710838317871092
    vertex 42.30421829223633 12.437175750732422 13.710838317871092
  endloop
endfacet
facet normal 0.0 1.0 0.0
  outer loop
    vertex 3.128060693165613 10.106254497823011 17.009372711181637
    vertex 6.1182035154312375 10.106254497823011 6.632341384887695
    vertex 3.128060693165613 10.106254497823011 5.475007534027099
  endloop
endfacet
facet normal 0.0 1.0 0.0
  outer loop
    vertex 6.1182035154312375 10.106254497823011 6.632341384887695
    vertex 3.128060693165613 10.106254497823011 17.009372711181637
    vertex 6.1182035154312375 10.106254497823011 17.009372711181637
  endloop
endfacet
facet normal 0.0 1.0 0.0
  outer loop
    vertex 6.1182035154312375 10.106254497823011 4.272842884063721
    vertex 9.216233605763271 10.106254497823011 2.263624668121338
    vertex 6.1182035154312375 10.106254497823011 2.263624668121338
  endloop
endfacet
facet normal 0.0 1.0 0.0
  outer loop
    vertex 9.216233605763271 10.106254497823011 2.263624668121338
    vertex 6.1182035154312375 10.106254497823011 4.272842884063721
    vertex 8.122956628224207 10.106254497823011 6.632341384887695
  endloop
endfacet
facet normal 0.0 1.0 0.0
  outer loop
    vertex 9.216233605763271 10.106254497823011 2.263624668121338
    vertex 8.122956628224207 10.106254497823011 6.632341384887695
    vertex 9.216233605763271 10.106254497823011 17.009372711181637
  endloop
endfacet
facet normal 0.0 1.0 0.0
  outer loop
    vertex 8.122956628224207 10.106254497823011 6.632341384887695
    vertex 6.1182035154312375 10.106254497823011 4.272842884063721
    vertex 3.128060693165613 10.106254497823011 5.475007534027099
  endloop
endfacet
facet normal 0.0 1.0 0.0
  outer loop
    vertex 8.122956628224207 10.106254497823011 6.632341384887695
    vertex 3.128060693165613 10.106254497823011 5.475007534027099
    vertex 6.1182035154312375 10.106254497823011 6.632341384887695
  endloop
endfacet
facet normal 0.0 1.0 0.0
  outer loop
    vertex 9.216233605763271 10.106254497823011 17.009372711181637
    vertex 8.122956628224207 10.106254497823011 6.632341384887695
    vertex 8.122956628224207 10.106254497823011 17.009372711181637
  endloop
endfacet
facet normal 0.0 0.7773998915550917 0.6290066840742886
  outer loop
    vertex 9.216237420460537 16.139327923115978 8.991840362548828
    vertex 11.245976800343348 19.95754424696852 4.272842884063721
    vertex 9.216237420460537 19.95754424696852 4.272842884063721
  endloop
endfacet
facet normal 0.0 0.7773998915550917 0.6290066840742886
  outer loop
    vertex 11.245976800343348 19.95754424696852 4.272842884063721
    vertex 9.216237420460537 16.139327923115978 8.991840362548828
    vertex 11.245976800343348 16.139327923115978 8.991840362548828
  endloop
endfacet
facet normal 5.219188314326612e-06 2.5199524409639954e-06 0.999999999983205
  outer loop
    vertex 12.47340597422107 8.063446037569163 17.009361388371097
    vertex 12.473405971351832 9.106246037569163 17.009361388193163
    vertex 12.427281647142316 8.06344883161088 17.009361950769307
  endloop
endfacet
facet normal 0.0 0.8166710140096072 0.5771035044743016
  outer loop
    vertex 40.440540313720696 10.106254577636719 17.009372711181637
    vertex 42.30421829223633 12.437175750732422 13.710838317871092
    vertex 40.440540313720696 12.437175750732422 13.710838317871092
  endloop
endfacet
facet normal 0.0 0.8166710140096072 0.5771035044743016
  outer loop
    vertex 42.30421829223633 12.437175750732422 13.710838317871092
    vertex 40.440540313720696 10.106254577636719 17.009372711181637
    vertex 42.30421829223633 10.106254577636719 17.009372711181637
  endloop
endfacet
facet normal 1.0 0.0 0.0
  outer loop
    vertex 42.30421829223633 22.14325904846191 0.0
    vertex 42.30421829223633 0.0 2.263624668121338
    vertex 42.30421829223633 0.0 0.0
  endloop
endfacet
facet normal 1.0 0.0 0.0
  outer loop
    vertex 42.30421829223633 0.0 2.263624668121338
    vertex 42.30421829223633 22.14325904846191 0.0
    vertex 42.304218295105564 8.063454577636717 2.263624668299276
  endloop
endfacet
facet normal 1.0 0.0 0.0
  outer loop
    vertex 42.304218295105564 8.063454577636717 2.263624668299276
    vertex 42.30421829223633 22.14325904846191 0.0
    vertex 42.304218295105564 8.063454577636717 17.009372711359575
  endloop
endfacet
facet normal 1.0 0.0 0.0
  outer loop
    vertex 42.304218295105564 8.063454577636717 17.009372711359575
    vertex 42.30421829223633 22.14325904846191 0.0
    vertex 42.30421829223633 12.437175750732422 13.710838317871092
  endloop
endfacet
facet normal 1.0 0.0 0.0
  outer loop
    vertex 42.304218295105564 8.063454577636717 17.009372711359575
    vertex 42.30421829223633 12.437175750732422 13.710838317871092
    vertex 42.30421829223633 10.106254577636719 17.009372711181637
  endloop
endfacet
facet normal 1.0 0.0 0.0
  outer loop
    vertex 42.30421829223633 12.437175750732422 13.710838317871092
    vertex 42.30421829223633 22.14325904846191 0.0
    vertex 42.30421829223633 16.139328002929688 8.991840362548828
  endloop
endfacet
facet normal 1.0 0.0 0.0
  outer loop
    vertex 42.30421829223633 16.139328002929688 8.991840362548828
    vertex 42.30421829223633 22.14325904846191 0.0
    vertex 42.30421829223633 19.957544326782227 4.272842884063721
  endloop
endfacet
facet normal 1.0 0.0 0.0
  outer loop
    vertex 42.30421829223633 19.957544326782227 4.272842884063721
    vertex 42.30421829223633 22.14325904846191 0.0
    vertex 42.30421829223633 22.14325904846191 2.263624668121338
  endloop
endfacet
facet normal 0.0 0.676757423419153 0.7362060783823163
  outer loop
    vertex 42.30421829223633 19.957544326782227 4.272842884063721
    vertex 40.440540313720696 22.14325904846191 2.263624668121338
    vertex 40.440540313720696 19.957544326782227 4.272842884063721
  endloop
endfacet
facet normal 0.0 0.676757423419153 0.7362060783823163
  outer loop
    vertex 40.440540313720696 22.14325904846191 2.263624668121338
    vertex 42.30421829223633 19.957544326782227 4.272842884063721
    vertex 42.30421829223633 22.14325904846191 2.263624668121338
  endloop
endfacet
facet normal -1.0 0.0 0.0
  outer loop
    vertex 40.440540313720696 12.437175750732422 13.710838317871092
    vertex 40.440540313720696 10.106254577636719 2.263624668121338
    vertex 40.440540313720696 10.106254577636719 17.009372711181637
  endloop
endfacet
facet normal -1.0 0.0 0.0
  outer loop
    vertex 40.440540313720696 10.106254577636719 2.263624668121338
    vertex 40.440540313720696 12.437175750732422 13.710838317871092
    vertex 40.440540313720696 16.139328002929688 8.991840362548828
  endloop
endfacet
facet normal -1.0 0.0 0.0
  outer loop
    vertex 40.440540313720696 10.106254577636719 2.263624668121338
    vertex 40.440540313720696 16.139328002929688 8.991840362548828
    vertex 40.440540313720696 19.957544326782227 4.272842884063721
  endloop
endfacet
facet normal -1.0 0.0 0.0
  outer loop
    vertex 40.440540313720696 10.106254577636719 2.263624668121338
    vertex 40.440540313720696 19.957544326782227 4.272842884063721
    vertex 40.440540313720696 22.14325904846191 2.263624668121338
  endloop
endfacet
facet normal -8.345191701082665e-19 8.710449608810948e-11 1.0
  outer loop
    vertex 33.65051062298641 8.06345449782301 17.009372711359575
    vertex 40.440540313720696 10.106254577636719 17.009372711181637
    vertex 33.65051062011717 10.106254497823011 17.009372711181637
  endloop
endfacet
facet normal -8.345191701082665e-19 8.710449608810948e-11 1.0
  outer loop
    vertex 40.440540313720696 10.106254577636719 17.009372711181637
    vertex 33.65051062298641 8.06345449782301 17.009372711359575
    vertex 42.304218295105564 8.063454577636717 17.009372711359575
  endloop
endfacet
facet normal -8.345191701082665e-19 8.710449608810948e-11 1.0
  outer loop
    vertex 40.440540313720696 10.106254577636719 17.009372711181637
    vertex 42.304218295105564 8.063454577636717 17.009372711359575
    vertex 42.30421829223633 10.106254577636719 17.009372711181637
  endloop
endfacet
facet normal 2.3350134973881272e-09 -1.0 0.0
  outer loop
    vertex 42.30421829223633 0.0 2.263624668121338
    vertex 8.122956628224207 -7.981370734322368e-08 0.0
    vertex 42.30421829223633 0.0 0.0
  endloop
endfacet
facet normal 2.3350134973881272e-09 -1.0 0.0
  outer loop
    vertex 8.122956628224207 -7.981370734322368e-08 0.0
    vertex 42.30421829223633 0.0 2.263624668121338
    vertex 8.122956628224207 -7.981370734322368e-08 2.263624668121338
  endloop
endfacet
facet normal -5.095165630922034e-13 -2.2974025806729896e-11 1.0
  outer loop
    vertex 8.122956628224207 -7.981370734322368e-08 2.263624668121338
    vertex 6.118203518300474 8.06345449782301 2.263624668299276
    vertex 6.1182035154312375 2.398654857930433 2.263624668121338
  endloop
endfacet
facet normal -5.095165630922034e-13 -2.2974025806729896e-11 1.0
  outer loop
    vertex 6.118203518300474 8.06345449782301 2.263624668299276
    vertex 8.122956628224207 -7.981370734322368e-08 2.263624668121338
    vertex 42.304218295105564 8.063454577636717 2.263624668299276
  endloop
endfacet
facet normal -5.095165630922034e-13 -2.2974025806729896e-11 1.0
  outer loop
    vertex 42.304218295105564 8.063454577636717 2.263624668299276
    vertex 8.122956628224207 -7.981370734322368e-08 2.263624668121338
    vertex 42.30421829223633 0.0 2.263624668121338
  endloop
endfacet
facet normal 0.0 0.0 1.0
  outer loop
    vertex 40.440540313720696 10.106254577636719 2.263624668121338
    vertex 11.245980615040613 22.1432589686482 2.263624668121338
    vertex 11.245980615040613 10.106254497823011 2.263624668121338
  endloop
endfacet
facet normal 0.0 0.0 1.0
  outer loop
    vertex 11.245980615040613 22.1432589686482 2.263624668121338
    vertex 40.440540313720696 10.106254577636719 2.263624668121338
    vertex 40.440540313720696 22.14325904846191 2.263624668121338
  endloop
endfacet
facet normal -2.5054856647644525e-07 0.999999999999968 -3.926825937490977e-08
  outer loop
    vertex 16.214057069516127 10.106249804201296 5.24187167286959
    vertex 28.929986975781436 10.106254497823011 5.369637850750607
    vertex 29.90055058774313 10.106254497823011 5.241863007400579
  endloop
endfacet
facet normal -2.5054856647644525e-07 0.999999999999968 -3.926825937490977e-08
  outer loop
    vertex 28.929986975781436 10.106254497823011 5.369637850750607
    vertex 16.214057069516127 10.106249804201296 5.24187167286959
    vertex 17.18461814596658 10.106250245366416 5.369650693716579
  endloop
endfacet
facet normal -2.5054856647644525e-07 0.999999999999968 -3.926825937490977e-08
  outer loop
    vertex 28.929986975781436 10.106254497823011 5.369637850750607
    vertex 17.18461814596658 10.106250245366416 5.369650693716579
    vertex 28.02556507987521 10.106254497823011 5.744259219151619
  endloop
endfacet
facet normal -2.5054856647644525e-07 0.999999999999968 -3.926825937490977e-08
  outer loop
    vertex 28.02556507987521 10.106254497823011 5.744259219151619
    vertex 17.18461814596658 10.106250245366416 5.369650693716579
    vertex 18.089036511541305 10.106250536671734 5.744275441031194
  endloop
endfacet
facet normal -2.5054856647644525e-07 0.999999999999968 -3.926825937490977e-08
  outer loop
    vertex 28.02556507987521 10.106254497823011 5.744259219151619
    vertex 18.089036511541305 10.106250536671734 5.744275441031194
    vertex 27.24891975760261 10.106254497823011 6.340197285438169
  endloop
endfacet
facet normal -2.5054856647644525e-07 0.999999999999968 -3.926825937490977e-08
  outer loop
    vertex 27.24891975760261 10.106254497823011 6.340197285438169
    vertex 18.089036511541305 10.106250536671734 5.744275441031194
    vertex 18.865677549248396 10.106250658265271 6.3402158573806116
  endloop
endfacet
facet normal -2.5054856647644525e-07 0.999999999999968 -3.926825937490977e-08
  outer loop
    vertex 27.24891975760261 10.106254497823011 6.340197285438169
    vertex 18.865677549248396 10.106250658265271 6.3402158573806116
    vertex 26.652978104209435 10.106254497823011 7.116839855227046
  endloop
endfacet
facet normal -2.5054856647644525e-07 0.999999999999968 -3.926825937490977e-08
  outer loop
    vertex 26.652978104209435 10.106254497823011 7.116839855227046
    vertex 18.865677549248396 10.106250658265271 6.3402158573806116
    vertex 19.461614455828112 10.106250601860626 7.116859588228722
  endloop
endfacet
facet normal -2.5054856647644525e-07 0.999999999999968 -3.926825937490977e-08
  outer loop
    vertex 26.652978104209435 10.106254497823011 7.116839855227046
    vertex 19.461614455828112 10.106250601860626 7.116859588228722
    vertex 26.278352558534294 10.106254497823011 8.021260020849672
  endloop
endfacet
facet normal -2.5054856647644525e-07 0.999999999999968 -3.926825937490977e-08
  outer loop
    vertex 26.278352558534294 10.106254497823011 8.021260020849672
    vertex 19.461614455828112 10.106250601860626 7.116859588228722
    vertex 19.83623511592935 10.106250371301687 8.021279646782675
  endloop
endfacet
facet normal -2.5054856647644525e-07 0.999999999999968 -3.926825937490977e-08
  outer loop
    vertex 26.278352558534294 10.106254497823011 8.021260020849672
    vertex 19.83623511592935 10.106250371301687 8.021279646782675
    vertex 26.15057322959296 10.106254497823011 8.991827800409691
  endloop
endfacet
facet normal -2.5054856647644525e-07 0.999999999999968 -3.926825937490977e-08
  outer loop
    vertex 26.15057322959296 10.106254497823011 8.991827800409691
    vertex 19.83623511592935 10.106250371301687 8.021279646782675
    vertex 19.96401098632813 10.106254577636719 8.991840362548828
  endloop
endfacet
facet normal -2.5054856647644525e-07 0.999999999999968 -3.926825937490977e-08
  outer loop
    vertex 26.15057322959296 10.106254497823011 8.991827800409691
    vertex 19.96401098632813 10.106254577636719 8.991840362548828
    vertex 26.15064952353827 10.106254497823011 17.00936110271682
  endloop
endfacet
facet normal -2.5054856647644525e-07 0.999999999999968 -3.926825937490977e-08
  outer loop
    vertex 26.15064952353827 10.106254497823011 17.00936110271682
    vertex 19.96401098632813 10.106254577636719 8.991840362548828
    vertex 19.96401098632813 10.106254577636719 17.009372711181637
  endloop
endfacet
facet normal -2.5054856647644525e-07 0.999999999999968 -3.926825937490977e-08
  outer loop
    vertex 11.245980615040613 10.106254497823011 2.263624668121338
    vertex 16.214057069516127 10.106249804201296 5.24187167286959
    vertex 40.440540313720696 10.106254577636719 2.263624668121338
  endloop
endfacet
facet normal -2.5054856647644525e-07 0.999999999999968 -3.926825937490977e-08
  outer loop
    vertex 16.214057069516127 10.106249804201296 5.24187167286959
    vertex 11.245980615040613 10.106254497823011 2.263624668121338
    vertex 15.243495415622023 10.106249243241042 5.369646307596135
  endloop
endfacet
facet normal -2.5054856647644525e-07 0.999999999999968 -3.926825937490977e-08
  outer loop
    vertex 15.243495415622023 10.106249243241042 5.369646307596135
    vertex 11.245980615040613 10.106254497823011 2.263624668121338
    vertex 14.339075357068182 10.106248600714173 5.744266967697164
  endloop
endfacet
facet normal -2.5054856647644525e-07 0.999999999999968 -3.926825937490977e-08
  outer loop
    vertex 14.339075357068182 10.106248600714173 5.744266967697164
    vertex 11.245980615040613 10.106254497823011 2.263624668121338
    vertex 13.562431626220235 10.10624792040783 6.340203874276708
  endloop
endfacet
facet normal -2.5054856647644525e-07 0.999999999999968 -3.926825937490977e-08
  outer loop
    vertex 13.562431626220235 10.10624792040783 6.340203874276708
    vertex 11.245980615040613 10.106254497823011 2.263624668121338
    vertex 12.966491209871021 10.106247248683768 7.116844911983671
  endloop
endfacet
facet normal -2.5054856647644525e-07 0.999999999999968 -3.926825937490977e-08
  outer loop
    vertex 12.966491209871021 10.106247248683768 7.116844911983671
    vertex 11.245980615040613 10.106254497823011 2.263624668121338
    vertex 12.591866462556636 10.106246631318871 8.021263277558324
  endloop
endfacet
facet normal -2.5054856647644525e-07 0.999999999999968 -3.926825937490977e-08
  outer loop
    vertex 12.591866462556636 10.106246631318871 8.021263277558324
    vertex 11.245980615040613 10.106254497823011 2.263624668121338
    vertex 11.245980615040613 10.106254497823011 17.009372711181637
  endloop
endfacet
facet normal -2.5054856647644525e-07 0.999999999999968 -3.926825937490977e-08
  outer loop
    vertex 40.440540313720696 10.106254577636719 2.263624668121338
    vertex 16.214057069516127 10.106249804201296 5.24187167286959
    vertex 29.90055058774313 10.106254497823011 5.241863007400579
  endloop
endfacet
facet normal -2.5054856647644525e-07 0.999999999999968 -3.926825937490977e-08
  outer loop
    vertex 12.591866462556636 10.106246631318871 8.021263277558324
    vertex 11.245980615040613 10.106254497823011 17.009372711181637
    vertex 12.47332967740652 10.106246037569163 8.991828085886036
  endloop
endfacet
facet normal -2.5054856647644525e-07 0.999999999999968 -3.926825937490977e-08
  outer loop
    vertex 12.47332967740652 10.106246037569163 8.991828085886036
    vertex 11.245980615040613 10.106254497823011 17.009372711181637
    vertex 12.473405971351832 10.106246037569163 17.009361388193163
  endloop
endfacet
facet normal -2.5054856647644525e-07 0.999999999999968 -3.926825937490977e-08
  outer loop
    vertex 40.440540313720696 10.106254577636719 2.263624668121338
    vertex 33.14811441123537 10.106254497823011 7.116854854858843
    vertex 40.440540313720696 10.106254577636719 17.009372711181637
  endloop
endfacet
facet normal -2.5054856647644525e-07 0.999999999999968 -3.926825937490977e-08
  outer loop
    vertex 33.14811441123537 10.106254497823011 7.116854854858843
    vertex 40.440540313720696 10.106254577636719 2.263624668121338
    vertex 32.55217634494882 10.106254497823011 6.340209532586246
  endloop
endfacet
facet normal -2.5054856647644525e-07 0.999999999999968 -3.926825937490977e-08
  outer loop
    vertex 32.55217634494882 10.106254497823011 6.340209532586246
    vertex 40.440540313720696 10.106254577636719 2.263624668121338
    vertex 31.775533775159943 10.106254497823011 5.744267879193074
  endloop
endfacet
facet normal -2.5054856647644525e-07 0.999999999999968 -3.926825937490977e-08
  outer loop
    vertex 31.775533775159943 10.106254497823011 5.744267879193074
    vertex 40.440540313720696 10.106254577636719 2.263624668121338
    vertex 30.871113609537314 10.106254497823011 5.369642333517928
  endloop
endfacet
facet normal -2.5054856647644525e-07 0.999999999999968 -3.926825937490977e-08
  outer loop
    vertex 30.871113609537314 10.106254497823011 5.369642333517928
    vertex 40.440540313720696 10.106254577636719 2.263624668121338
    vertex 29.90055058774313 10.106254497823011 5.241863007400579
  endloop
endfacet
facet normal -2.5054856647644525e-07 0.999999999999968 -3.926825937490977e-08
  outer loop
    vertex 40.440540313720696 10.106254577636719 17.009372711181637
    vertex 33.14811441123537 10.106254497823011 7.116854854858843
    vertex 33.52273577963638 10.106254497823011 8.02127675076507
  endloop
endfacet
facet normal -2.5054856647644525e-07 0.999999999999968 -3.926825937490977e-08
  outer loop
    vertex 40.440540313720696 10.106254577636719 17.009372711181637
    vertex 33.52273577963638 10.106254497823011 8.02127675076507
    vertex 33.65051062011717 10.106254497823011 8.991840362548828
  endloop
endfacet
facet normal -2.5054856647644525e-07 0.999999999999968 -3.926825937490977e-08
  outer loop
    vertex 40.440540313720696 10.106254577636719 17.009372711181637
    vertex 33.65051062011717 10.106254497823011 8.991840362548828
    vertex 33.65051062011717 10.106254497823011 17.009372711181637
  endloop
endfacet
facet normal 8.45056705219726e-08 -0.9999999999999958 -4.028962284497945e-08
  outer loop
    vertex 42.304218295105564 8.063454577636717 2.263624668299276
    vertex 29.90055058774313 8.06345449782301 5.241863007400579
    vertex 6.118203518300474 8.06345449782301 2.263624668299276
  endloop
endfacet
facet normal 8.45056705219726e-08 -0.9999999999999958 -4.028962284497945e-08
  outer loop
    vertex 29.90055058774313 8.06345449782301 5.241863007400579
    vertex 42.304218295105564 8.063454577636717 2.263624668299276
    vertex 30.871113609537314 8.06345449782301 5.369642333517928
  endloop
endfacet
facet normal 8.45056705219726e-08 -0.9999999999999958 -4.028962284497945e-08
  outer loop
    vertex 30.871113609537314 8.06345449782301 5.369642333517928
    vertex 42.304218295105564 8.063454577636717 2.263624668299276
    vertex 31.775533775159943 8.06345449782301 5.744267879193074
  endloop
endfacet
facet normal 8.45056705219726e-08 -0.9999999999999958 -4.028962284497945e-08
  outer loop
    vertex 31.775533775159943 8.06345449782301 5.744267879193074
    vertex 42.304218295105564 8.063454577636717 2.263624668299276
    vertex 32.55217634494882 8.06345449782301 6.340209532586246
  endloop
endfacet
facet normal 8.45056705219726e-08 -0.9999999999999958 -4.028962284497945e-08
  outer loop
    vertex 32.55217634494882 8.06345449782301 6.340209532586246
    vertex 42.304218295105564 8.063454577636717 2.263624668299276
    vertex 42.304218295105564 8.063454577636717 17.009372711359575
  endloop
endfacet
facet normal 8.45056705219726e-08 -0.9999999999999958 -4.028962284497945e-08
  outer loop
    vertex 6.118203518300474 8.06345449782301 2.263624668299276
    vertex 29.90055058774313 8.06345449782301 5.241863007400579
    vertex 6.118203518300474 8.06345449782301 4.272842884241658
  endloop
endfacet
facet normal 8.45056705219726e-08 -0.9999999999999958 -4.028962284497945e-08
  outer loop
    vertex 32.55217634494882 8.06345449782301 6.340209532586246
    vertex 42.304218295105564 8.063454577636717 17.009372711359575
    vertex 33.14811441123537 8.06345449782301 7.116854854858843
  endloop
endfacet
facet normal 8.45056705219726e-08 -0.9999999999999958 -4.028962284497945e-08
  outer loop
    vertex 33.14811441123537 8.06345449782301 7.116854854858843
    vertex 42.304218295105564 8.063454577636717 17.009372711359575
    vertex 33.52273577963638 8.06345449782301 8.02127675076507
  endloop
endfacet
facet normal 8.45056705219726e-08 -0.9999999999999958 -4.028962284497945e-08
  outer loop
    vertex 33.52273577963638 8.06345449782301 8.02127675076507
    vertex 42.304218295105564 8.063454577636717 17.009372711359575
    vertex 33.65051062298641 8.06345449782301 8.991840362726766
  endloop
endfacet
facet normal 8.45056705219726e-08 -0.9999999999999958 -4.028962284497945e-08
  outer loop
    vertex 33.65051062298641 8.06345449782301 8.991840362726766
    vertex 42.304218295105564 8.063454577636717 17.009372711359575
    vertex 33.65051062298641 8.06345449782301 17.009372711359575
  endloop
endfacet
facet normal 8.45056705219726e-08 -0.9999999999999958 -4.028962284497945e-08
  outer loop
    vertex 28.929986975781436 8.06345449782301 5.369637850750607
    vertex 16.214058308058572 8.063452065461135 5.241870734918431
    vertex 29.90055058774313 8.06345449782301 5.241863007400579
  endloop
endfacet
facet normal 8.45056705219726e-08 -0.9999999999999958 -4.028962284497945e-08
  outer loop
    vertex 16.214058308058572 8.063452065461135 5.241870734918431
    vertex 28.929986975781436 8.06345449782301 5.369637850750607
    vertex 17.184619384509027 8.063452506626257 5.369649755765419
  endloop
endfacet
facet normal 8.45056705219726e-08 -0.9999999999999958 -4.028962284497945e-08
  outer loop
    vertex 17.184619384509027 8.063452506626257 5.369649755765419
    vertex 28.929986975781436 8.06345449782301 5.369637850750607
    vertex 28.02556507987521 8.06345449782301 5.744259219151619
  endloop
endfacet
facet normal 8.45056705219726e-08 -0.9999999999999958 -4.028962284497945e-08
  outer loop
    vertex 17.184619384509027 8.063452506626257 5.369649755765419
    vertex 28.02556507987521 8.06345449782301 5.744259219151619
    vertex 18.08903775008375 8.063452797931573 5.744274503080034
  endloop
endfacet
facet normal 8.45056705219726e-08 -0.9999999999999958 -4.028962284497945e-08
  outer loop
    vertex 18.08903775008375 8.063452797931573 5.744274503080034
    vertex 28.02556507987521 8.06345449782301 5.744259219151619
    vertex 27.24891975760261 8.06345449782301 6.340197285438169
  endloop
endfacet
facet normal 8.45056705219726e-08 -0.9999999999999958 -4.028962284497945e-08
  outer loop
    vertex 18.08903775008375 8.063452797931573 5.744274503080034
    vertex 27.24891975760261 8.06345449782301 6.340197285438169
    vertex 18.86567878779084 8.06345291952511 6.340214919429451
  endloop
endfacet
facet normal 8.45056705219726e-08 -0.9999999999999958 -4.028962284497945e-08
  outer loop
    vertex 18.86567878779084 8.06345291952511 6.340214919429451
    vertex 27.24891975760261 8.06345449782301 6.340197285438169
    vertex 26.652978104209435 8.06345449782301 7.116839855227046
  endloop
endfacet
facet normal 8.45056705219726e-08 -0.9999999999999958 -4.028962284497945e-08
  outer loop
    vertex 18.86567878779084 8.06345291952511 6.340214919429451
    vertex 26.652978104209435 8.06345449782301 7.116839855227046
    vertex 19.461615694370558 8.063452863120467 7.11685865027756
  endloop
endfacet
facet normal 8.45056705219726e-08 -0.9999999999999958 -4.028962284497945e-08
  outer loop
    vertex 19.461615694370558 8.063452863120467 7.11685865027756
    vertex 26.652978104209435 8.06345449782301 7.116839855227046
    vertex 26.278352558534294 8.06345449782301 8.021260020849672
  endloop
endfacet
facet normal 8.45056705219726e-08 -0.9999999999999958 -4.028962284497945e-08
  outer loop
    vertex 19.461615694370558 8.063452863120467 7.11685865027756
    vertex 26.278352558534294 8.06345449782301 8.021260020849672
    vertex 19.836236354471797 8.063452632561527 8.021278708831513
  endloop
endfacet
facet normal 8.45056705219726e-08 -0.9999999999999958 -4.028962284497945e-08
  outer loop
    vertex 19.836236354471797 8.063452632561527 8.021278708831513
    vertex 26.278352558534294 8.06345449782301 8.021260020849672
    vertex 26.1505732324622 8.06345449782301 8.991827800587629
  endloop
endfacet
facet normal 8.45056705219726e-08 -0.9999999999999958 -4.028962284497945e-08
  outer loop
    vertex 19.836236354471797 8.063452632561527 8.021278708831513
    vertex 26.1505732324622 8.06345449782301 8.991827800587629
    vertex 19.96401098919737 8.063454577636717 8.991840362726766
  endloop
endfacet
facet normal 8.45056705219726e-08 -0.9999999999999958 -4.028962284497945e-08
  outer loop
    vertex 19.96401098919737 8.063454577636717 8.991840362726766
    vertex 26.1505732324622 8.06345449782301 8.991827800587629
    vertex 26.15064952640751 8.06345449782301 17.009361102894758
  endloop
endfacet
facet normal 8.45056705219726e-08 -0.9999999999999958 -4.028962284497945e-08
  outer loop
    vertex 19.96401098919737 8.063454577636717 8.991840362726766
    vertex 26.15064952640751 8.06345449782301 17.009361102894758
    vertex 19.96401098919737 8.063454577636717 17.009372711359575
  endloop
endfacet
facet normal 8.45056705219726e-08 -0.9999999999999958 -4.028962284497945e-08
  outer loop
    vertex 12.966492448413467 8.063449509943608 7.11684397403251
    vertex 8.122956631093443 8.06345449782301 6.632341385065634
    vertex 13.56243286476268 8.063450181667669 6.340202936325547
  endloop
endfacet
facet normal 8.45056705219726e-08 -0.9999999999999958 -4.028962284497945e-08
  outer loop
    vertex 8.122956631093443 8.06345449782301 6.632341385065634
    vertex 12.966492448413467 8.063449509943608 7.11684397403251
    vertex 8.122956631093443 8.06345449782301 17.009372711359575
  endloop
endfacet
facet normal 8.45056705219726e-08 -0.9999999999999958 -4.028962284497945e-08
  outer loop
    vertex 8.122956631093443 8.06345449782301 17.009372711359575
    vertex 12.966492448413467 8.063449509943608 7.11684397403251
    vertex 12.591867701099078 8.06344889257871 8.021262339607164
  endloop
endfacet
facet normal 8.45056705219726e-08 -0.9999999999999958 -4.028962284497945e-08
  outer loop
    vertex 8.122956631093443 8.06345449782301 17.009372711359575
    vertex 12.591867701099078 8.06344889257871 8.021262339607164
    vertex 12.473329680275755 8.063446037569163 8.991828086063975
  endloop
endfacet
facet normal 8.45056705219726e-08 -0.9999999999999958 -4.028962284497945e-08
  outer loop
    vertex 8.122956631093443 8.06345449782301 17.009372711359575
    vertex 12.473329680275755 8.063446037569163 8.991828086063975
    vertex 12.473330348237413 8.063447190539462 9.062022079406821
  endloop
endfacet
facet normal 8.45056705219726e-08 -0.9999999999999958 -4.028962284497945e-08
  outer loop
    vertex 8.122956631093443 8.06345449782301 17.009372711359575
    vertex 12.473330348237413 8.063447190539462 9.062022079406821
    vertex 12.47340597422107 8.063446037569163 17.009361388371097
  endloop
endfacet
facet normal 8.45056705219726e-08 -0.9999999999999958 -4.028962284497945e-08
  outer loop
    vertex 8.122956631093443 8.06345449782301 17.009372711359575
    vertex 12.47340597422107 8.063446037569163 17.009361388371097
    vertex 12.427281647142316 8.06344883161088 17.009361950769307
  endloop
endfacet
facet normal 8.45056705219726e-08 -0.9999999999999958 -4.028962284497945e-08
  outer loop
    vertex 6.118203518300474 8.06345449782301 4.272842884241658
    vertex 16.214058308058572 8.063452065461135 5.241870734918431
    vertex 3.12806069603485 8.06345449782301 5.475007534205037
  endloop
endfacet
facet normal 8.45056705219726e-08 -0.9999999999999958 -4.028962284497945e-08
  outer loop
    vertex 16.214058308058572 8.063452065461135 5.241870734918431
    vertex 6.118203518300474 8.06345449782301 4.272842884241658
    vertex 29.90055058774313 8.06345449782301 5.241863007400579
  endloop
endfacet
facet normal 8.45056705219726e-08 -0.9999999999999958 -4.028962284497945e-08
  outer loop
    vertex 3.12806069603485 8.06345449782301 5.475007534205037
    vertex 16.214058308058572 8.063452065461135 5.241870734918431
    vertex 15.243496654164469 8.063451504500883 5.369645369644974
  endloop
endfacet
facet normal 8.45056705219726e-08 -0.9999999999999958 -4.028962284497945e-08
  outer loop
    vertex 3.12806069603485 8.06345449782301 5.475007534205037
    vertex 15.243496654164469 8.063451504500883 5.369645369644974
    vertex 14.339076595610628 8.063450861974012 5.744266029746004
  endloop
endfacet
facet normal 8.45056705219726e-08 -0.9999999999999958 -4.028962284497945e-08
  outer loop
    vertex 3.12806069603485 8.06345449782301 5.475007534205037
    vertex 14.339076595610628 8.063450861974012 5.744266029746004
    vertex 6.118203518300474 8.06345449782301 6.632341385065634
  endloop
endfacet
facet normal 8.45056705219726e-08 -0.9999999999999958 -4.028962284497945e-08
  outer loop
    vertex 3.12806069603485 8.06345449782301 5.475007534205037
    vertex 6.118203518300474 8.06345449782301 6.632341385065634
    vertex 3.12806069603485 8.06345449782301 17.009372711359575
  endloop
endfacet
facet normal 8.45056705219726e-08 -0.9999999999999958 -4.028962284497945e-08
  outer loop
    vertex 6.118203518300474 8.06345449782301 6.632341385065634
    vertex 14.339076595610628 8.063450861974012 5.744266029746004
    vertex 13.56243286476268 8.063450181667669 6.340202936325547
  endloop
endfacet
facet normal 8.45056705219726e-08 -0.9999999999999958 -4.028962284497945e-08
  outer loop
    vertex 6.118203518300474 8.06345449782301 6.632341385065634
    vertex 13.56243286476268 8.063450181667669 6.340202936325547
    vertex 8.122956631093443 8.06345449782301 6.632341385065634
  endloop
endfacet
facet normal 8.45056705219726e-08 -0.9999999999999958 -4.028962284497945e-08
  outer loop
    vertex 3.12806069603485 8.06345449782301 17.009372711359575
    vertex 6.118203518300474 8.06345449782301 6.632341385065634
    vertex 6.118203518300474 8.06345449782301 17.009372711359575
  endloop
endfacet
facet normal -1.6065619900594824e-09 0.9999999999999998 1.9490399303127488e-08
  outer loop
    vertex 6.1182035154312375 22.1432589686482 2.263624668121338
    vertex 42.30421829223633 22.14325904846191 0.0
    vertex 6.1182035154312375 22.14325904846191 0.0
  endloop
endfacet
facet normal -1.6065619900594824e-09 0.9999999999999998 1.9490399303127488e-08
  outer loop
    vertex 42.30421829223633 22.14325904846191 0.0
    vertex 6.1182035154312375 22.1432589686482 2.263624668121338
    vertex 42.30421829223633 22.14325904846191 2.263624668121338
  endloop
endfacet
facet normal -1.6065619900594824e-09 0.9999999999999998 1.9490399303127488e-08
  outer loop
    vertex 42.30421829223633 22.14325904846191 2.263624668121338
    vertex 6.1182035154312375 22.1432589686482 2.263624668121338
    vertex 9.216233605763271 22.1432589686482 2.263624668121338
  endloop
endfacet
facet normal -1.6065619900594824e-09 0.9999999999999998 1.9490399303127488e-08
  outer loop
    vertex 42.30421829223633 22.14325904846191 2.263624668121338
    vertex 9.216233605763271 22.1432589686482 2.263624668121338
    vertex 11.245980615040613 22.1432589686482 2.263624668121338
  endloop
endfacet
facet normal -1.6065619900594824e-09 0.9999999999999998 1.9490399303127488e-08
  outer loop
    vertex 42.30421829223633 22.14325904846191 2.263624668121338
    vertex 11.245980615040613 22.1432589686482 2.263624668121338
    vertex 40.440540313720696 22.14325904846191 2.263624668121338
  endloop
endfacet
facet normal 0.0 0.0 -1.0
  outer loop
    vertex 42.30421829223633 22.14325904846191 0.0
    vertex 6.1182035154312375 2.398654857930433 0.0
    vertex 6.1182035154312375 22.14325904846191 0.0
  endloop
endfacet
facet normal 0.0 0.0 -1.0
  outer loop
    vertex 6.1182035154312375 2.398654857930433 0.0
    vertex 42.30421829223633 22.14325904846191 0.0
    vertex 8.122956628224207 -7.981370734322368e-08 0.0
  endloop
endfacet
facet normal 0.0 0.0 -1.0
  outer loop
    vertex 8.122956628224207 -7.981370734322368e-08 0.0
    vertex 42.30421829223633 22.14325904846191 0.0
    vertex 42.30421829223633 0.0 0.0
  endloop
endfacet
facet normal -0.7672963757973982 -0.6412926568176014 0.0
  outer loop
    vertex 6.1182035154312375 2.398654857930433 2.263624668121338
    vertex 8.122956628224207 -7.981370734322368e-08 0.0
    vertex 8.122956628224207 -7.981370734322368e-08 2.263624668121338
  endloop
endfacet
facet normal -0.7672963757973982 -0.6412926568176014 0.0
  outer loop
    vertex 8.122956628224207 -7.981370734322368e-08 0.0
    vertex 6.1182035154312375 2.398654857930433 2.263624668121338
    vertex 6.1182035154312375 2.398654857930433 0.0
  endloop
endfacet
facet normal 0.0 0.8166710140096072 0.5771035044743015
  outer loop
    vertex 9.216233605763271 10.106254497823011 17.009372711181637
    vertex 11.245976800343348 12.437175670918714 13.710838317871092
    vertex 9.216237420460537 12.437175670918714 13.710838317871092
  endloop
endfacet
facet normal 0.0 0.8166710140096072 0.5771035044743015
  outer loop
    vertex 11.245976800343348 12.437175670918714 13.710838317871092
    vertex 9.216233605763271 10.106254497823011 17.009372711181637
    vertex 11.245980615040613 10.106254497823011 17.009372711181637
  endloop
endfacet
facet normal 0.0 0.6767574234191537 0.7362060783823158
  outer loop
    vertex 9.216237420460537 19.95754424696852 4.272842884063721
    vertex 11.245980615040613 22.1432589686482 2.263624668121338
    vertex 9.216233605763271 22.1432589686482 2.263624668121338
  endloop
endfacet
facet normal 0.0 0.6767574234191537 0.7362060783823158
  outer loop
    vertex 11.245980615040613 22.1432589686482 2.263624668121338
    vertex 9.216237420460537 19.95754424696852 4.272842884063721
    vertex 11.245976800343348 19.95754424696852 4.272842884063721
  endloop
endfacet
facet normal 0.999999999999974 1.828234460774737e-07 1.3709493903525212e-07
  outer loop
    vertex 11.245980615040613 10.106254497823011 2.263624668121338
    vertex 11.245976800343348 12.437175670918714 13.710838317871092
    vertex 11.245980615040613 10.106254497823011 17.009372711181637
  endloop
endfacet
facet normal 0.999999999999974 1.828234460774737e-07 1.3709493903525212e-07
  outer loop
    vertex 11.245976800343348 12.437175670918714 13.710838317871092
    vertex 11.245980615040613 10.106254497823011 2.263624668121338
    vertex 11.245976800343348 16.139327923115978 8.991840362548828
  endloop
endfacet
facet normal 0.999999999999974 1.828234460774737e-07 1.3709493903525212e-07
  outer loop
    vertex 11.245976800343348 16.139327923115978 8.991840362548828
    vertex 11.245980615040613 10.106254497823011 2.263624668121338
    vertex 11.245976800343348 19.95754424696852 4.272842884063721
  endloop
endfacet
facet normal 0.999999999999974 1.828234460774737e-07 1.3709493903525212e-07
  outer loop
    vertex 11.245976800343348 19.95754424696852 4.272842884063721
    vertex 11.245980615040613 10.106254497823011 2.263624668121338
    vertex 11.245980615040613 22.1432589686482 2.263624668121338
  endloop
endfacet
facet normal -0.999999999999974 1.8282344607747368e-07 1.3709493903525218e-07
  outer loop
    vertex 9.216237420460537 12.437175670918714 13.710838317871092
    vertex 9.216233605763271 10.106254497823011 2.263624668121338
    vertex 9.216233605763271 10.106254497823011 17.009372711181637
  endloop
endfacet
facet normal -0.999999999999974 1.8282344607747368e-07 1.3709493903525218e-07
  outer loop
    vertex 9.216233605763271 10.106254497823011 2.263624668121338
    vertex 9.216237420460537 12.437175670918714 13.710838317871092
    vertex 9.216237420460537 16.139327923115978 8.991840362548828
  endloop
endfacet
facet normal -0.999999999999974 1.8282344607747368e-07 1.3709493903525218e-07
  outer loop
    vertex 9.216233605763271 10.106254497823011 2.263624668121338
    vertex 9.216237420460537 16.139327923115978 8.991840362548828
    vertex 9.216237420460537 19.95754424696852 4.272842884063721
  endloop
endfacet
facet normal -0.999999999999974 1.8282344607747368e-07 1.3709493903525218e-07
  outer loop
    vertex 9.216233605763271 10.106254497823011 2.263624668121338
    vertex 9.216237420460537 19.95754424696852 4.272842884063721
    vertex 9.216233605763271 22.1432589686482 2.263624668121338
  endloop
endfacet
facet normal 0.0 0.0 1.0
  outer loop
    vertex 9.216233605763271 10.106254497823011 2.263624668121338
    vertex 6.1182035154312375 22.1432589686482 2.263624668121338
    vertex 6.1182035154312375 10.106254497823011 2.263624668121338
  endloop
endfacet
facet normal 0.0 0.0 1.0
  outer loop
    vertex 6.1182035154312375 22.1432589686482 2.263624668121338
    vertex 9.216233605763271 10.106254497823011 2.263624668121338
    vertex 9.216233605763271 22.1432589686482 2.263624668121338
  endloop
endfacet
facet normal -1.0 -1.4045608659344885e-09 2.063373005628498e-26
  outer loop
    vertex 8.122956628224207 10.106254497823011 17.009372711181637
    vertex 8.122956631093443 8.06345449782301 6.632341385065634
    vertex 8.122956631093443 8.06345449782301 17.009372711359575
  endloop
endfacet
facet normal -1.0 -1.4045608659344885e-09 2.063373005628498e-26
  outer loop
    vertex 8.122956631093443 8.06345449782301 6.632341385065634
    vertex 8.122956628224207 10.106254497823011 17.009372711181637
    vertex 8.122956628224207 10.106254497823011 6.632341384887695
  endloop
endfacet
facet normal -3.516430064554836e-28 8.710518654079252e-11 1.0
  outer loop
    vertex 6.118203518300474 8.06345449782301 6.632341385065634
    vertex 8.122956628224207 10.106254497823011 6.632341384887695
    vertex 6.1182035154312375 10.106254497823011 6.632341384887695
  endloop
endfacet
facet normal -3.516430064554836e-28 8.710518654079252e-11 1.0
  outer loop
    vertex 8.122956628224207 10.106254497823011 6.632341384887695
    vertex 6.118203518300474 8.06345449782301 6.632341385065634
    vertex 8.122956631093443 8.06345449782301 6.632341385065634
  endloop
endfacet
facet normal 1.0 1.4045608659344885e-09 -2.063373005628498e-26
  outer loop
    vertex 6.1182035154312375 10.106254497823011 6.632341384887695
    vertex 6.118203518300474 8.06345449782301 17.009372711359575
    vertex 6.118203518300474 8.06345449782301 6.632341385065634
  endloop
endfacet
facet normal 1.0 1.4045608659344885e-09 -2.063373005628498e-26
  outer loop
    vertex 6.118203518300474 8.06345449782301 17.009372711359575
    vertex 6.1182035154312375 10.106254497823011 6.632341384887695
    vertex 6.1182035154312375 10.106254497823011 17.009372711181637
  endloop
endfacet
facet normal 3.1904287323846687e-27 8.710449631989902e-11 1.0
  outer loop
    vertex 3.12806069603485 8.06345449782301 17.009372711359575
    vertex 6.1182035154312375 10.106254497823011 17.009372711181637
    vertex 3.128060693165613 10.106254497823011 17.009372711181637
  endloop
endfacet
facet normal 3.1904287323846687e-27 8.710449631989902e-11 1.0
  outer loop
    vertex 6.1182035154312375 10.106254497823011 17.009372711181637
    vertex 3.12806069603485 8.06345449782301 17.009372711359575
    vertex 6.118203518300474 8.06345449782301 17.009372711359575
  endloop
endfacet
facet normal -1.0 -1.4045608659344885e-09 1.0318052897104878e-27
  outer loop
    vertex 3.128060693165613 10.106254497823011 17.009372711181637
    vertex 3.12806069603485 8.06345449782301 5.475007534205037
    vertex 3.12806069603485 8.06345449782301 17.009372711359575
  endloop
endfacet
facet normal -1.0 -1.4045608659344885e-09 1.0318052897104878e-27
  outer loop
    vertex 3.12806069603485 8.06345449782301 5.475007534205037
    vertex 3.128060693165613 10.106254497823011 17.009372711181637
    vertex 3.128060693165613 10.106254497823011 5.475007534027099
  endloop
endfacet
facet normal -0.3730238288690028 -6.04752779823461e-10 -0.9278217625686028
  outer loop
    vertex 6.1182035154312375 10.106254497823011 4.272842884063721
    vertex 3.12806069603485 8.06345449782301 5.475007534205037
    vertex 3.128060693165613 10.106254497823011 5.475007534027099
  endloop
endfacet
facet normal -0.3730238288690028 -6.04752779823461e-10 -0.9278217625686028
  outer loop
    vertex 3.12806069603485 8.06345449782301 5.475007534205037
    vertex 6.1182035154312375 10.106254497823011 4.272842884063721
    vertex 6.118203518300474 8.06345449782301 4.272842884241658
  endloop
endfacet
facet normal 1.8644898261024116e-06 -1.8397665875693107e-07 0.999999999998245
  outer loop
    vertex 19.96401098919737 8.063454577636717 17.009372711359575
    vertex 26.15064952353827 10.106254497823011 17.00936110271682
    vertex 19.96401098632813 10.106254577636719 17.009372711181637
  endloop
endfacet
facet normal 1.8644898261024116e-06 -1.8397665875693107e-07 0.999999999998245
  outer loop
    vertex 26.15064952353827 10.106254497823011 17.00936110271682
    vertex 19.96401098919737 8.063454577636717 17.009372711359575
    vertex 26.15064952640751 8.06345449782301 17.009361102894758
  endloop
endfacet
facet normal 0.999999999954724 5.038484366772085e-13 -9.515887423217433e-06
  outer loop
    vertex 12.47332967740652 10.106246037569163 8.991828085886036
    vertex 12.473330348237413 8.063447190539462 9.062022079406821
    vertex 12.473329680275755 8.063446037569163 8.991828086063975
  endloop
endfacet
facet normal 0.999999999954724 5.038484366772085e-13 -9.515887423217433e-06
  outer loop
    vertex 12.473330348237413 8.063447190539462 9.062022079406821
    vertex 12.47332967740652 10.106246037569163 8.991828085886036
    vertex 12.473405971351832 9.106246037569163 17.009361388193163
  endloop
endfacet
facet normal 0.999999999954724 5.038484366772085e-13 -9.515887423217433e-06
  outer loop
    vertex 12.473405971351832 9.106246037569163 17.009361388193163
    vertex 12.47332967740652 10.106246037569163 8.991828085886036
    vertex 12.473405971351832 10.106246037569163 17.009361388193163
  endloop
endfacet
facet normal 0.999999999954724 5.038484366772085e-13 -9.515887423217433e-06
  outer loop
    vertex 12.473405971351832 9.106246037569163 17.009361388193163
    vertex 12.47340597422107 8.063446037569163 17.009361388371097
    vertex 12.473330348237413 8.063447190539462 9.062022079406821
  endloop
endfacet
facet normal -1.0 6.640072518850465e-31 -2.344833264505025e-16
  outer loop
    vertex 19.96401098632813 10.106254577636719 17.009372711181637
    vertex 19.96401098919737 8.063454577636717 8.991840362726766
    vertex 19.96401098919737 8.063454577636717 17.009372711359575
  endloop
endfacet
facet normal -1.0 6.640072518850465e-31 -2.344833264505025e-16
  outer loop
    vertex 19.96401098919737 8.063454577636717 8.991840362726766
    vertex 19.96401098632813 10.106254577636719 17.009372711181637
    vertex 19.96401098632813 10.106254577636719 8.991840362548828
  endloop
endfacet
facet normal 0.9926242587573305 2.782070963163476e-07 0.12123151787543843
  outer loop
    vertex 12.591867701099078 8.06344889257871 8.021262339607164
    vertex 12.47332967740652 10.106246037569163 8.991828085886036
    vertex 12.473329680275755 8.063446037569163 8.991828086063975
  endloop
endfacet
facet normal 0.9926242587573305 2.782070963163476e-07 0.12123151787543843
  outer loop
    vertex 12.47332967740652 10.106246037569163 8.991828085886036
    vertex 12.591867701099078 8.06344889257871 8.021262339607164
    vertex 12.591866462556636 10.106246631318871 8.021263277558324
  endloop
endfacet
facet normal 0.9238786678053407 3.91302290822422e-07 0.3826855199430416
  outer loop
    vertex 12.966492448413467 8.063449509943608 7.11684397403251
    vertex 12.591866462556636 10.106246631318871 8.021263277558324
    vertex 12.591867701099078 8.06344889257871 8.021262339607164
  endloop
endfacet
facet normal 0.9238786678053407 3.91302290822422e-07 0.3826855199430416
  outer loop
    vertex 12.591866462556636 10.106246631318871 8.021263277558324
    vertex 12.966492448413467 8.063449509943608 7.11684397403251
    vertex 12.966491209871021 10.106247248683768 7.116844911983671
  endloop
endfacet
facet normal 0.7933519647445774 2.0461286971013237e-07 0.608763221651799
  outer loop
    vertex 13.56243286476268 8.063450181667669 6.340202936325547
    vertex 12.966491209871021 10.106247248683768 7.116844911983671
    vertex 12.966492448413467 8.063449509943608 7.11684397403251
  endloop
endfacet
facet normal 0.7933519647445774 2.0461286971013237e-07 0.608763221651799
  outer loop
    vertex 12.966491209871021 10.106247248683768 7.116844911983671
    vertex 13.56243286476268 8.063450181667669 6.340202936325547
    vertex 13.562431626220235 10.10624792040783 6.340203874276708
  endloop
endfacet
facet normal 0.6087596363625793 3.979419665847857e-09 0.7933547158337817
  outer loop
    vertex 13.56243286476268 8.063450181667669 6.340202936325547
    vertex 14.339075357068182 10.106248600714173 5.744266967697164
    vertex 13.562431626220235 10.10624792040783 6.340203874276708
  endloop
endfacet
facet normal 0.6087596363625793 3.979419665847857e-09 0.7933547158337817
  outer loop
    vertex 14.339075357068182 10.106248600714173 5.744266967697164
    vertex 13.56243286476268 8.063450181667669 6.340202936325547
    vertex 14.339076595610628 8.063450861974012 5.744266029746004
  endloop
endfacet
facet normal 0.38268134478533816 -1.9692522125236082e-07 0.9238803972123483
  outer loop
    vertex 14.339076595610628 8.063450861974012 5.744266029746004
    vertex 15.243495415622023 10.106249243241042 5.369646307596135
    vertex 14.339075357068182 10.106248600714173 5.744266967697164
  endloop
endfacet
facet normal 0.38268134478533816 -1.9692522125236082e-07 0.9238803972123483
  outer loop
    vertex 15.243495415622023 10.106249243241042 5.369646307596135
    vertex 14.339076595610628 8.063450861974012 5.744266029746004
    vertex 15.243496654164469 8.063451504500883 5.369645369644974
  endloop
endfacet
facet normal 0.13052395197180008 -3.844097337765361e-07 0.9914451563054387
  outer loop
    vertex 15.243496654164469 8.063451504500883 5.369645369644974
    vertex 16.214057069516127 10.106249804201296 5.24187167286959
    vertex 15.243495415622023 10.106249243241042 5.369646307596135
  endloop
endfacet
facet normal 0.13052395197180008 -3.844097337765361e-07 0.9914451563054387
  outer loop
    vertex 16.214057069516127 10.106249804201296 5.24187167286959
    vertex 15.243496654164469 8.063451504500883 5.369645369644974
    vertex 16.214058308058572 8.063452065461135 5.241870734918431
  endloop
endfacet
facet normal -0.13052843246758955 -5.456973582109633e-07 0.9914445664369018
  outer loop
    vertex 16.214058308058572 8.063452065461135 5.241870734918431
    vertex 17.18461814596658 10.106250245366416 5.369650693716579
    vertex 16.214057069516127 10.106249804201296 5.24187167286959
  endloop
endfacet
facet normal -0.13052843246758955 -5.456973582109633e-07 0.9914445664369018
  outer loop
    vertex 17.18461814596658 10.106250245366416 5.369650693716579
    vertex 16.214058308058572 8.063452065461135 5.241870734918431
    vertex 17.184619384509027 8.063452506626257 5.369649755765419
  endloop
endfacet
facet normal -0.38268551994274413 -6.697966094908352e-07 0.9238786678053038
  outer loop
    vertex 17.184619384509027 8.063452506626257 5.369649755765419
    vertex 18.089036511541305 10.106250536671734 5.744275441031194
    vertex 17.18461814596658 10.106250245366416 5.369650693716579
  endloop
endfacet
facet normal -0.38268551994274413 -6.697966094908352e-07 0.9238786678053038
  outer loop
    vertex 18.089036511541305 10.106250536671734 5.744275441031194
    vertex 17.184619384509027 8.063452506626257 5.369649755765419
    vertex 18.08903775008375 8.063452797931573 5.744274503080034
  endloop
endfacet
facet normal -0.6087632216515251 -7.482503287251397e-07 0.7933519647444611
  outer loop
    vertex 18.08903775008375 8.063452797931573 5.744274503080034
    vertex 18.865677549248396 10.106250658265271 6.3402158573806116
    vertex 18.089036511541305 10.106250536671734 5.744275441031194
  endloop
endfacet
facet normal -0.6087632216515251 -7.482503287251397e-07 0.7933519647444611
  outer loop
    vertex 18.865677549248396 10.106250658265271 6.3402158573806116
    vertex 18.08903775008375 8.063452797931573 5.744274503080034
    vertex 18.86567878779084 8.06345291952511 6.340214919429451
  endloop
endfacet
facet normal -0.7933547158335437 -7.757120245989591e-07 0.6087596363623952
  outer loop
    vertex 19.461614455828112 10.106250601860626 7.116859588228722
    vertex 18.86567878779084 8.06345291952511 6.340214919429451
    vertex 19.461615694370558 8.063452863120467 7.11685865027756
  endloop
endfacet
facet normal -0.7933547158335437 -7.757120245989591e-07 0.6087596363623952
  outer loop
    vertex 18.86567878779084 8.06345291952511 6.340214919429451
    vertex 19.461614455828112 10.106250601860626 7.116859588228722
    vertex 18.865677549248396 10.106250658265271 6.3402158573806116
  endloop
endfacet
facet normal -0.9238803972121642 -7.503102279210916e-07 0.3826813447850976
  outer loop
    vertex 19.83623511592935 10.106250371301687 8.021279646782675
    vertex 19.461615694370558 8.063452863120467 7.11685865027756
    vertex 19.836236354471797 8.063452632561527 8.021278708831513
  endloop
endfacet
facet normal -0.9238803972121642 -7.503102279210916e-07 0.3826813447850976
  outer loop
    vertex 19.461615694370558 8.063452863120467 7.11685865027756
    vertex 19.83623511592935 10.106250371301687 8.021279646782675
    vertex 19.461614455828112 10.106250601860626 7.116859588228722
  endloop
endfacet
facet normal -0.9914450664691771 -3.3688776603587395e-07 0.13052463435618464
  outer loop
    vertex 19.96401098919737 8.063454577636717 8.991840362726766
    vertex 19.83623511592935 10.106250371301687 8.021279646782675
    vertex 19.836236354471797 8.063452632561527 8.021278708831513
  endloop
endfacet
facet normal -0.9914450664691771 -3.3688776603587395e-07 0.13052463435618464
  outer loop
    vertex 19.83623511592935 10.106250371301687 8.021279646782675
    vertex 19.96401098919737 8.063454577636717 8.991840362726766
    vertex 19.96401098632813 10.106254577636719 8.991840362548828
  endloop
endfacet
facet normal 0.999999999954724 1.4045600369904757e-09 -9.515887546718501e-06
  outer loop
    vertex 26.15057322959296 10.106254497823011 8.991827800409691
    vertex 26.15064952640751 8.06345449782301 17.009361102894758
    vertex 26.1505732324622 8.06345449782301 8.991827800587629
  endloop
endfacet
facet normal 0.999999999954724 1.4045600369904757e-09 -9.515887546718501e-06
  outer loop
    vertex 26.15064952640751 8.06345449782301 17.009361102894758
    vertex 26.15057322959296 10.106254497823011 8.991827800409691
    vertex 26.15064952353827 10.106254497823011 17.00936110271682
  endloop
endfacet
facet normal -1.0 -1.4045608659344887e-09 -1.009167406450518e-26
  outer loop
    vertex 33.65051062011717 10.106254497823011 17.009372711181637
    vertex 33.65051062298641 8.06345449782301 8.991840362726766
    vertex 33.65051062298641 8.06345449782301 17.009372711359575
  endloop
endfacet
facet normal -1.0 -1.4045608659344887e-09 -1.009167406450518e-26
  outer loop
    vertex 33.65051062298641 8.06345449782301 8.991840362726766
    vertex 33.65051062011717 10.106254497823011 17.009372711181637
    vertex 33.65051062011717 10.106254497823011 8.991840362548828
  endloop
endfacet
facet normal 0.9914446425613412 7.019570016735709e-10 0.13052785425499985
  outer loop
    vertex 26.278352558534294 10.106254497823011 8.021260020849672
    vertex 26.1505732324622 8.06345449782301 8.991827800587629
    vertex 26.278352558534294 8.06345449782301 8.021260020849672
  endloop
endfacet
facet normal 0.9914446425613412 7.019570016735709e-10 0.13052785425499985
  outer loop
    vertex 26.1505732324622 8.06345449782301 8.991827800587629
    vertex 26.278352558534294 10.106254497823011 8.021260020849672
    vertex 26.15057322959296 10.106254497823011 8.991827800409691
  endloop
endfacet
facet normal 0.9238786487536105 0.0 0.3826855659378897
  outer loop
    vertex 26.652978104209435 10.106254497823011 7.116839855227046
    vertex 26.278352558534294 8.06345449782301 8.021260020849672
    vertex 26.652978104209435 8.06345449782301 7.116839855227046
  endloop
endfacet
facet normal 0.9238786487536105 0.0 0.3826855659378897
  outer loop
    vertex 26.278352558534294 8.06345449782301 8.021260020849672
    vertex 26.652978104209435 10.106254497823011 7.116839855227046
    vertex 26.278352558534294 10.106254497823011 8.021260020849672
  endloop
endfacet
facet normal 0.7933519344375926 0.0 0.6087632611484779
  outer loop
    vertex 27.24891975760261 10.106254497823011 6.340197285438169
    vertex 26.652978104209435 8.06345449782301 7.116839855227046
    vertex 27.24891975760261 8.06345449782301 6.340197285438169
  endloop
endfacet
facet normal 0.7933519344375926 0.0 0.6087632611484779
  outer loop
    vertex 26.652978104209435 8.06345449782301 7.116839855227046
    vertex 27.24891975760261 10.106254497823011 6.340197285438169
    vertex 26.652978104209435 10.106254497823011 7.116839855227046
  endloop
endfacet
facet normal 0.608759596865717 0.0 0.7933547461406466
  outer loop
    vertex 28.02556507987521 8.06345449782301 5.744259219151619
    vertex 27.24891975760261 10.106254497823011 6.340197285438169
    vertex 27.24891975760261 8.06345449782301 6.340197285438169
  endloop
endfacet
facet normal 0.608759596865717 0.0 0.7933547461406466
  outer loop
    vertex 27.24891975760261 10.106254497823011 6.340197285438169
    vertex 28.02556507987521 8.06345449782301 5.744259219151619
    vertex 28.02556507987521 10.106254497823011 5.744259219151619
  endloop
endfacet
facet normal 0.3826812987902456 0.0 0.9238804162640373
  outer loop
    vertex 28.929986975781436 8.06345449782301 5.369637850750607
    vertex 28.02556507987521 10.106254497823011 5.744259219151619
    vertex 28.02556507987521 8.06345449782301 5.744259219151619
  endloop
endfacet
facet normal 0.3826812987902456 0.0 0.9238804162640373
  outer loop
    vertex 28.02556507987521 10.106254497823011 5.744259219151619
    vertex 28.929986975781436 8.06345449782301 5.369637850750607
    vertex 28.929986975781436 10.106254497823011 5.369637850750607
  endloop
endfacet
facet normal 0.1305239026129632 0.0 0.9914451628036125
  outer loop
    vertex 29.90055058774313 8.06345449782301 5.241863007400579
    vertex 28.929986975781436 10.106254497823011 5.369637850750607
    vertex 28.929986975781436 8.06345449782301 5.369637850750607
  endloop
endfacet
facet normal 0.1305239026129632 0.0 0.9914451628036125
  outer loop
    vertex 28.929986975781436 10.106254497823011 5.369637850750607
    vertex 29.90055058774313 8.06345449782301 5.241863007400579
    vertex 29.90055058774313 10.106254497823011 5.241863007400579
  endloop
endfacet
facet normal -0.1305284818264438 0.0 0.9914445599387208
  outer loop
    vertex 30.871113609537314 8.06345449782301 5.369642333517928
    vertex 29.90055058774313 10.106254497823011 5.241863007400579
    vertex 29.90055058774313 8.06345449782301 5.241863007400579
  endloop
endfacet
facet normal -0.1305284818264438 0.0 0.9914445599387208
  outer loop
    vertex 29.90055058774313 10.106254497823011 5.241863007400579
    vertex 30.871113609537314 8.06345449782301 5.369642333517928
    vertex 30.871113609537314 10.106254497823011 5.369642333517928
  endloop
endfacet
facet normal -0.38268556593789177 0.0 0.9238786487536096
  outer loop
    vertex 31.775533775159943 8.06345449782301 5.744267879193074
    vertex 30.871113609537314 10.106254497823011 5.369642333517928
    vertex 30.871113609537314 8.06345449782301 5.369642333517928
  endloop
endfacet
facet normal -0.38268556593789177 0.0 0.9238786487536096
  outer loop
    vertex 30.871113609537314 10.106254497823011 5.369642333517928
    vertex 31.775533775159943 8.06345449782301 5.744267879193074
    vertex 31.775533775159943 10.106254497823011 5.744267879193074
  endloop
endfacet
facet normal -0.6087632611484778 0.0 0.7933519344375928
  outer loop
    vertex 32.55217634494882 8.06345449782301 6.340209532586246
    vertex 31.775533775159943 10.106254497823011 5.744267879193074
    vertex 31.775533775159943 8.06345449782301 5.744267879193074
  endloop
endfacet
facet normal -0.6087632611484778 0.0 0.7933519344375928
  outer loop
    vertex 31.775533775159943 10.106254497823011 5.744267879193074
    vertex 32.55217634494882 8.06345449782301 6.340209532586246
    vertex 32.55217634494882 10.106254497823011 6.340209532586246
  endloop
endfacet
facet normal -0.7933547461406448 0.0 0.6087595968657191
  outer loop
    vertex 33.14811441123537 10.106254497823011 7.116854854858843
    vertex 32.55217634494882 8.06345449782301 6.340209532586246
    vertex 33.14811441123537 8.06345449782301 7.116854854858843
  endloop
endfacet
facet normal -0.7933547461406448 0.0 0.6087595968657191
  outer loop
    vertex 32.55217634494882 8.06345449782301 6.340209532586246
    vertex 33.14811441123537 10.106254497823011 7.116854854858843
    vertex 32.55217634494882 10.106254497823011 6.340209532586246
  endloop
endfacet
facet normal -0.923880416264038 0.0 0.3826812987902439
  outer loop
    vertex 33.52273577963638 10.106254497823011 8.02127675076507
    vertex 33.14811441123537 8.06345449782301 7.116854854858843
    vertex 33.52273577963638 8.06345449782301 8.02127675076507
  endloop
endfacet
facet normal -0.923880416264038 0.0 0.3826812987902439
  outer loop
    vertex 33.14811441123537 8.06345449782301 7.116854854858843
    vertex 33.52273577963638 10.106254497823011 8.02127675076507
    vertex 33.14811441123537 10.106254497823011 7.116854854858843
  endloop
endfacet
facet normal -0.9914451629917086 -6.905878812290408e-10 0.13052390118420712
  outer loop
    vertex 33.65051062011717 10.106254497823011 8.991840362548828
    vertex 33.52273577963638 8.06345449782301 8.02127675076507
    vertex 33.65051062298641 8.06345449782301 8.991840362726766
  endloop
endfacet
facet normal -0.9914451629917086 -6.905878812290408e-10 0.13052390118420712
  outer loop
    vertex 33.52273577963638 8.06345449782301 8.02127675076507
    vertex 33.65051062011717 10.106254497823011 8.991840362548828
    vertex 33.52273577963638 10.106254497823011 8.02127675076507
  endloop
endfacet
facet normal 2.4765760212982897e-06 -1.3217535228039126e-06 0.9999999999960598
  outer loop
    vertex 8.122956631093443 8.06345449782301 17.009372711359575
    vertex 9.216233605763271 10.106254497823011 17.009372711181637
    vertex 8.122956628224207 10.106254497823011 17.009372711181637
  endloop
endfacet
facet normal 2.4765760212982897e-06 -1.3217535228039126e-06 0.9999999999960598
  outer loop
    vertex 9.216233605763271 10.106254497823011 17.009372711181637
    vertex 8.122956631093443 8.06345449782301 17.009372711359575
    vertex 12.427281647142316 8.06344883161088 17.009361950769307
  endloop
endfacet
facet normal 2.4765760212982897e-06 -1.3217535228039126e-06 0.9999999999960598
  outer loop
    vertex 9.216233605763271 10.106254497823011 17.009372711181637
    vertex 12.427281647142316 8.06344883161088 17.009361950769307
    vertex 11.245980615040613 10.106254497823011 17.009372711181637
  endloop
endfacet
facet normal 2.4765760212982897e-06 -1.3217535228039126e-06 0.9999999999960598
  outer loop
    vertex 11.245980615040613 10.106254497823011 17.009372711181637
    vertex 12.427281647142316 8.06344883161088 17.009361950769307
    vertex 12.473405971351832 10.106246037569163 17.009361388193163
  endloop
endfacet
facet normal 2.4765760212982897e-06 -1.3217535228039126e-06 0.9999999999960598
  outer loop
    vertex 12.473405971351832 10.106246037569163 17.009361388193163
    vertex 12.427281647142316 8.06344883161088 17.009361950769307
    vertex 12.473405971351832 9.106246037569163 17.009361388193163
  endloop
endfacet
facet normal -1.0 -2.5829842262082007e-11 3.159323190604542e-10
  outer loop
    vertex 6.1182035154312375 10.106254497823011 4.272842884063721
    vertex 6.118203518300474 8.06345449782301 2.263624668299276
    vertex 6.118203518300474 8.06345449782301 4.272842884241658
  endloop
endfacet
facet normal -1.0 -2.5829842262082007e-11 3.159323190604542e-10
  outer loop
    vertex 6.118203518300474 8.06345449782301 2.263624668299276
    vertex 6.1182035154312375 2.398654857930433 0.0
    vertex 6.1182035154312375 2.398654857930433 2.263624668121338
  endloop
endfacet
facet normal -1.0 -2.5829842262082007e-11 3.159323190604542e-10
  outer loop
    vertex 6.1182035154312375 2.398654857930433 0.0
    vertex 6.118203518300474 8.06345449782301 2.263624668299276
    vertex 6.1182035154312375 22.14325904846191 0.0
  endloop
endfacet
facet normal -1.0 -2.5829842262082007e-11 3.159323190604542e-10
  outer loop
    vertex 6.1182035154312375 22.14325904846191 0.0
    vertex 6.118203518300474 8.06345449782301 2.263624668299276
    vertex 6.1182035154312375 10.106254497823011 2.263624668121338
  endloop
endfacet
facet normal -1.0 -2.5829842262082007e-11 3.159323190604542e-10
  outer loop
    vertex 6.1182035154312375 10.106254497823011 2.263624668121338
    vertex 6.118203518300474 8.06345449782301 2.263624668299276
    vertex 6.1182035154312375 10.106254497823011 4.272842884063721
  endloop
endfacet
facet normal -1.0 -2.5829842262082007e-11 3.159323190604542e-10
  outer loop
    vertex 6.1182035154312375 22.14325904846191 0.0
    vertex 6.1182035154312375 10.106254497823011 2.263624668121338
    vertex 6.1182035154312375 22.1432589686482 2.263624668121338
  endloop
endfacet
endsolid nespi-buttoncarrier
