G75*
G70*
%OFA0B0*%
%FSLAX24Y24*%
%IPPOS*%
%LPD*%
%AMOC8*
5,1,8,0,0,1.08239X$1,22.5*
%
%ADD10C,0.0000*%
D10*
X004465Y000625D02*
X004465Y024495D01*
X041457Y024495D01*
X041457Y000625D01*
X004465Y000625D01*
X008709Y007023D02*
X008711Y007067D01*
X008717Y007111D01*
X008727Y007154D01*
X008740Y007196D01*
X008758Y007236D01*
X008779Y007275D01*
X008803Y007312D01*
X008830Y007347D01*
X008861Y007379D01*
X008894Y007408D01*
X008930Y007434D01*
X008968Y007456D01*
X009008Y007475D01*
X009049Y007491D01*
X009092Y007503D01*
X009135Y007511D01*
X009179Y007515D01*
X009223Y007515D01*
X009267Y007511D01*
X009310Y007503D01*
X009353Y007491D01*
X009394Y007475D01*
X009434Y007456D01*
X009472Y007434D01*
X009508Y007408D01*
X009541Y007379D01*
X009572Y007347D01*
X009599Y007312D01*
X009623Y007275D01*
X009644Y007236D01*
X009662Y007196D01*
X009675Y007154D01*
X009685Y007111D01*
X009691Y007067D01*
X009693Y007023D01*
X009691Y006979D01*
X009685Y006935D01*
X009675Y006892D01*
X009662Y006850D01*
X009644Y006810D01*
X009623Y006771D01*
X009599Y006734D01*
X009572Y006699D01*
X009541Y006667D01*
X009508Y006638D01*
X009472Y006612D01*
X009434Y006590D01*
X009394Y006571D01*
X009353Y006555D01*
X009310Y006543D01*
X009267Y006535D01*
X009223Y006531D01*
X009179Y006531D01*
X009135Y006535D01*
X009092Y006543D01*
X009049Y006555D01*
X009008Y006571D01*
X008968Y006590D01*
X008930Y006612D01*
X008894Y006638D01*
X008861Y006667D01*
X008830Y006699D01*
X008803Y006734D01*
X008779Y006771D01*
X008758Y006810D01*
X008740Y006850D01*
X008727Y006892D01*
X008717Y006935D01*
X008711Y006979D01*
X008709Y007023D01*
X008709Y019227D02*
X008711Y019271D01*
X008717Y019315D01*
X008727Y019358D01*
X008740Y019400D01*
X008758Y019440D01*
X008779Y019479D01*
X008803Y019516D01*
X008830Y019551D01*
X008861Y019583D01*
X008894Y019612D01*
X008930Y019638D01*
X008968Y019660D01*
X009008Y019679D01*
X009049Y019695D01*
X009092Y019707D01*
X009135Y019715D01*
X009179Y019719D01*
X009223Y019719D01*
X009267Y019715D01*
X009310Y019707D01*
X009353Y019695D01*
X009394Y019679D01*
X009434Y019660D01*
X009472Y019638D01*
X009508Y019612D01*
X009541Y019583D01*
X009572Y019551D01*
X009599Y019516D01*
X009623Y019479D01*
X009644Y019440D01*
X009662Y019400D01*
X009675Y019358D01*
X009685Y019315D01*
X009691Y019271D01*
X009693Y019227D01*
X009691Y019183D01*
X009685Y019139D01*
X009675Y019096D01*
X009662Y019054D01*
X009644Y019014D01*
X009623Y018975D01*
X009599Y018938D01*
X009572Y018903D01*
X009541Y018871D01*
X009508Y018842D01*
X009472Y018816D01*
X009434Y018794D01*
X009394Y018775D01*
X009353Y018759D01*
X009310Y018747D01*
X009267Y018739D01*
X009223Y018735D01*
X009179Y018735D01*
X009135Y018739D01*
X009092Y018747D01*
X009049Y018759D01*
X009008Y018775D01*
X008968Y018794D01*
X008930Y018816D01*
X008894Y018842D01*
X008861Y018871D01*
X008830Y018903D01*
X008803Y018938D01*
X008779Y018975D01*
X008758Y019014D01*
X008740Y019054D01*
X008727Y019096D01*
X008717Y019139D01*
X008711Y019183D01*
X008709Y019227D01*
X038237Y019227D02*
X038239Y019271D01*
X038245Y019315D01*
X038255Y019358D01*
X038268Y019400D01*
X038286Y019440D01*
X038307Y019479D01*
X038331Y019516D01*
X038358Y019551D01*
X038389Y019583D01*
X038422Y019612D01*
X038458Y019638D01*
X038496Y019660D01*
X038536Y019679D01*
X038577Y019695D01*
X038620Y019707D01*
X038663Y019715D01*
X038707Y019719D01*
X038751Y019719D01*
X038795Y019715D01*
X038838Y019707D01*
X038881Y019695D01*
X038922Y019679D01*
X038962Y019660D01*
X039000Y019638D01*
X039036Y019612D01*
X039069Y019583D01*
X039100Y019551D01*
X039127Y019516D01*
X039151Y019479D01*
X039172Y019440D01*
X039190Y019400D01*
X039203Y019358D01*
X039213Y019315D01*
X039219Y019271D01*
X039221Y019227D01*
X039219Y019183D01*
X039213Y019139D01*
X039203Y019096D01*
X039190Y019054D01*
X039172Y019014D01*
X039151Y018975D01*
X039127Y018938D01*
X039100Y018903D01*
X039069Y018871D01*
X039036Y018842D01*
X039000Y018816D01*
X038962Y018794D01*
X038922Y018775D01*
X038881Y018759D01*
X038838Y018747D01*
X038795Y018739D01*
X038751Y018735D01*
X038707Y018735D01*
X038663Y018739D01*
X038620Y018747D01*
X038577Y018759D01*
X038536Y018775D01*
X038496Y018794D01*
X038458Y018816D01*
X038422Y018842D01*
X038389Y018871D01*
X038358Y018903D01*
X038331Y018938D01*
X038307Y018975D01*
X038286Y019014D01*
X038268Y019054D01*
X038255Y019096D01*
X038245Y019139D01*
X038239Y019183D01*
X038237Y019227D01*
X038237Y007023D02*
X038239Y007067D01*
X038245Y007111D01*
X038255Y007154D01*
X038268Y007196D01*
X038286Y007236D01*
X038307Y007275D01*
X038331Y007312D01*
X038358Y007347D01*
X038389Y007379D01*
X038422Y007408D01*
X038458Y007434D01*
X038496Y007456D01*
X038536Y007475D01*
X038577Y007491D01*
X038620Y007503D01*
X038663Y007511D01*
X038707Y007515D01*
X038751Y007515D01*
X038795Y007511D01*
X038838Y007503D01*
X038881Y007491D01*
X038922Y007475D01*
X038962Y007456D01*
X039000Y007434D01*
X039036Y007408D01*
X039069Y007379D01*
X039100Y007347D01*
X039127Y007312D01*
X039151Y007275D01*
X039172Y007236D01*
X039190Y007196D01*
X039203Y007154D01*
X039213Y007111D01*
X039219Y007067D01*
X039221Y007023D01*
X039219Y006979D01*
X039213Y006935D01*
X039203Y006892D01*
X039190Y006850D01*
X039172Y006810D01*
X039151Y006771D01*
X039127Y006734D01*
X039100Y006699D01*
X039069Y006667D01*
X039036Y006638D01*
X039000Y006612D01*
X038962Y006590D01*
X038922Y006571D01*
X038881Y006555D01*
X038838Y006543D01*
X038795Y006535D01*
X038751Y006531D01*
X038707Y006531D01*
X038663Y006535D01*
X038620Y006543D01*
X038577Y006555D01*
X038536Y006571D01*
X038496Y006590D01*
X038458Y006612D01*
X038422Y006638D01*
X038389Y006667D01*
X038358Y006699D01*
X038331Y006734D01*
X038307Y006771D01*
X038286Y006810D01*
X038268Y006850D01*
X038255Y006892D01*
X038245Y006935D01*
X038239Y006979D01*
X038237Y007023D01*
M02*
