G75*
G70*
%OFA0B0*%
%FSLAX24Y24*%
%IPPOS*%
%LPD*%
%AMOC8*
5,1,8,0,0,1.08239X$1,22.5*
%
%ADD10C,0.0000*%
%ADD11C,0.1024*%
%ADD12C,0.0700*%
%ADD13OC8,0.0560*%
%ADD14C,0.0820*%
%ADD15R,0.0634X0.0634*%
%ADD16C,0.0634*%
%ADD17C,0.0050*%
%ADD18C,0.0780*%
%ADD19C,0.0594*%
%ADD20C,0.0480*%
%ADD21OC8,0.0670*%
%ADD22R,0.0780X0.0780*%
D10*
X004465Y000625D02*
X004465Y024495D01*
X041457Y024495D01*
X041457Y000625D01*
X004465Y000625D01*
X008709Y007023D02*
X008711Y007067D01*
X008717Y007111D01*
X008727Y007154D01*
X008740Y007196D01*
X008758Y007236D01*
X008779Y007275D01*
X008803Y007312D01*
X008830Y007347D01*
X008861Y007379D01*
X008894Y007408D01*
X008930Y007434D01*
X008968Y007456D01*
X009008Y007475D01*
X009049Y007491D01*
X009092Y007503D01*
X009135Y007511D01*
X009179Y007515D01*
X009223Y007515D01*
X009267Y007511D01*
X009310Y007503D01*
X009353Y007491D01*
X009394Y007475D01*
X009434Y007456D01*
X009472Y007434D01*
X009508Y007408D01*
X009541Y007379D01*
X009572Y007347D01*
X009599Y007312D01*
X009623Y007275D01*
X009644Y007236D01*
X009662Y007196D01*
X009675Y007154D01*
X009685Y007111D01*
X009691Y007067D01*
X009693Y007023D01*
X009691Y006979D01*
X009685Y006935D01*
X009675Y006892D01*
X009662Y006850D01*
X009644Y006810D01*
X009623Y006771D01*
X009599Y006734D01*
X009572Y006699D01*
X009541Y006667D01*
X009508Y006638D01*
X009472Y006612D01*
X009434Y006590D01*
X009394Y006571D01*
X009353Y006555D01*
X009310Y006543D01*
X009267Y006535D01*
X009223Y006531D01*
X009179Y006531D01*
X009135Y006535D01*
X009092Y006543D01*
X009049Y006555D01*
X009008Y006571D01*
X008968Y006590D01*
X008930Y006612D01*
X008894Y006638D01*
X008861Y006667D01*
X008830Y006699D01*
X008803Y006734D01*
X008779Y006771D01*
X008758Y006810D01*
X008740Y006850D01*
X008727Y006892D01*
X008717Y006935D01*
X008711Y006979D01*
X008709Y007023D01*
X008709Y019227D02*
X008711Y019271D01*
X008717Y019315D01*
X008727Y019358D01*
X008740Y019400D01*
X008758Y019440D01*
X008779Y019479D01*
X008803Y019516D01*
X008830Y019551D01*
X008861Y019583D01*
X008894Y019612D01*
X008930Y019638D01*
X008968Y019660D01*
X009008Y019679D01*
X009049Y019695D01*
X009092Y019707D01*
X009135Y019715D01*
X009179Y019719D01*
X009223Y019719D01*
X009267Y019715D01*
X009310Y019707D01*
X009353Y019695D01*
X009394Y019679D01*
X009434Y019660D01*
X009472Y019638D01*
X009508Y019612D01*
X009541Y019583D01*
X009572Y019551D01*
X009599Y019516D01*
X009623Y019479D01*
X009644Y019440D01*
X009662Y019400D01*
X009675Y019358D01*
X009685Y019315D01*
X009691Y019271D01*
X009693Y019227D01*
X009691Y019183D01*
X009685Y019139D01*
X009675Y019096D01*
X009662Y019054D01*
X009644Y019014D01*
X009623Y018975D01*
X009599Y018938D01*
X009572Y018903D01*
X009541Y018871D01*
X009508Y018842D01*
X009472Y018816D01*
X009434Y018794D01*
X009394Y018775D01*
X009353Y018759D01*
X009310Y018747D01*
X009267Y018739D01*
X009223Y018735D01*
X009179Y018735D01*
X009135Y018739D01*
X009092Y018747D01*
X009049Y018759D01*
X009008Y018775D01*
X008968Y018794D01*
X008930Y018816D01*
X008894Y018842D01*
X008861Y018871D01*
X008830Y018903D01*
X008803Y018938D01*
X008779Y018975D01*
X008758Y019014D01*
X008740Y019054D01*
X008727Y019096D01*
X008717Y019139D01*
X008711Y019183D01*
X008709Y019227D01*
X038237Y019227D02*
X038239Y019271D01*
X038245Y019315D01*
X038255Y019358D01*
X038268Y019400D01*
X038286Y019440D01*
X038307Y019479D01*
X038331Y019516D01*
X038358Y019551D01*
X038389Y019583D01*
X038422Y019612D01*
X038458Y019638D01*
X038496Y019660D01*
X038536Y019679D01*
X038577Y019695D01*
X038620Y019707D01*
X038663Y019715D01*
X038707Y019719D01*
X038751Y019719D01*
X038795Y019715D01*
X038838Y019707D01*
X038881Y019695D01*
X038922Y019679D01*
X038962Y019660D01*
X039000Y019638D01*
X039036Y019612D01*
X039069Y019583D01*
X039100Y019551D01*
X039127Y019516D01*
X039151Y019479D01*
X039172Y019440D01*
X039190Y019400D01*
X039203Y019358D01*
X039213Y019315D01*
X039219Y019271D01*
X039221Y019227D01*
X039219Y019183D01*
X039213Y019139D01*
X039203Y019096D01*
X039190Y019054D01*
X039172Y019014D01*
X039151Y018975D01*
X039127Y018938D01*
X039100Y018903D01*
X039069Y018871D01*
X039036Y018842D01*
X039000Y018816D01*
X038962Y018794D01*
X038922Y018775D01*
X038881Y018759D01*
X038838Y018747D01*
X038795Y018739D01*
X038751Y018735D01*
X038707Y018735D01*
X038663Y018739D01*
X038620Y018747D01*
X038577Y018759D01*
X038536Y018775D01*
X038496Y018794D01*
X038458Y018816D01*
X038422Y018842D01*
X038389Y018871D01*
X038358Y018903D01*
X038331Y018938D01*
X038307Y018975D01*
X038286Y019014D01*
X038268Y019054D01*
X038255Y019096D01*
X038245Y019139D01*
X038239Y019183D01*
X038237Y019227D01*
X038237Y007023D02*
X038239Y007067D01*
X038245Y007111D01*
X038255Y007154D01*
X038268Y007196D01*
X038286Y007236D01*
X038307Y007275D01*
X038331Y007312D01*
X038358Y007347D01*
X038389Y007379D01*
X038422Y007408D01*
X038458Y007434D01*
X038496Y007456D01*
X038536Y007475D01*
X038577Y007491D01*
X038620Y007503D01*
X038663Y007511D01*
X038707Y007515D01*
X038751Y007515D01*
X038795Y007511D01*
X038838Y007503D01*
X038881Y007491D01*
X038922Y007475D01*
X038962Y007456D01*
X039000Y007434D01*
X039036Y007408D01*
X039069Y007379D01*
X039100Y007347D01*
X039127Y007312D01*
X039151Y007275D01*
X039172Y007236D01*
X039190Y007196D01*
X039203Y007154D01*
X039213Y007111D01*
X039219Y007067D01*
X039221Y007023D01*
X039219Y006979D01*
X039213Y006935D01*
X039203Y006892D01*
X039190Y006850D01*
X039172Y006810D01*
X039151Y006771D01*
X039127Y006734D01*
X039100Y006699D01*
X039069Y006667D01*
X039036Y006638D01*
X039000Y006612D01*
X038962Y006590D01*
X038922Y006571D01*
X038881Y006555D01*
X038838Y006543D01*
X038795Y006535D01*
X038751Y006531D01*
X038707Y006531D01*
X038663Y006535D01*
X038620Y006543D01*
X038577Y006555D01*
X038536Y006571D01*
X038496Y006590D01*
X038458Y006612D01*
X038422Y006638D01*
X038389Y006667D01*
X038358Y006699D01*
X038331Y006734D01*
X038307Y006771D01*
X038286Y006810D01*
X038268Y006850D01*
X038255Y006892D01*
X038245Y006935D01*
X038239Y006979D01*
X038237Y007023D01*
D11*
X038729Y007023D03*
X038729Y019227D03*
X009201Y019227D03*
X009201Y007023D03*
D12*
X026465Y006125D03*
X026465Y002125D03*
X026366Y019227D03*
X025366Y019227D03*
X024366Y019227D03*
X023366Y019227D03*
X022366Y019227D03*
X021366Y019227D03*
X020366Y019227D03*
X019366Y019227D03*
X018366Y019227D03*
X017366Y019227D03*
X016366Y019227D03*
X015366Y019227D03*
X014366Y019227D03*
X013366Y019227D03*
X012366Y019227D03*
X011366Y019227D03*
X008965Y022625D03*
X006965Y022625D03*
D13*
X010965Y013125D03*
X010965Y012125D03*
X010965Y011125D03*
X010965Y010125D03*
X014965Y010125D03*
X014965Y011125D03*
X014965Y012125D03*
X014965Y013125D03*
X019465Y013125D03*
X021965Y013125D03*
X024965Y013125D03*
X024965Y009125D03*
X021965Y009125D03*
X019465Y009125D03*
X013465Y006125D03*
X013465Y002125D03*
X006965Y006625D03*
X005965Y006625D03*
X006465Y007375D03*
D14*
X038075Y004615D02*
X038855Y004615D01*
X038855Y002635D02*
X038075Y002635D01*
D15*
X006965Y021625D03*
D16*
X007965Y021625D03*
X008965Y021625D03*
X009965Y021625D03*
X010965Y021625D03*
X011965Y021625D03*
X012965Y021625D03*
X013965Y021625D03*
X014965Y021625D03*
X015965Y021625D03*
X016965Y021625D03*
X017965Y021625D03*
X018965Y021625D03*
X018965Y022625D03*
X017965Y022625D03*
X016965Y022625D03*
X015965Y022625D03*
X014965Y022625D03*
X013965Y022625D03*
X012965Y022625D03*
X011965Y022625D03*
X010965Y022625D03*
X009965Y022625D03*
X007965Y022625D03*
D17*
X011884Y005282D02*
X011956Y005290D01*
X012022Y005285D01*
X012086Y005269D01*
X012146Y005241D01*
X012201Y005204D01*
X012248Y005158D01*
X012287Y005104D01*
X012316Y005044D01*
X012333Y004981D01*
X012340Y004915D01*
X012333Y004849D01*
X012315Y004785D01*
X012286Y004726D01*
X012248Y004672D01*
X012200Y004626D01*
X012145Y004589D01*
X012085Y004562D01*
X012021Y004546D01*
X011955Y004541D01*
X011883Y004549D01*
X011814Y004570D01*
X011751Y004605D01*
X011695Y004652D01*
X011650Y004708D01*
X011616Y004772D01*
X011596Y004842D01*
X011590Y004914D01*
X011596Y004986D01*
X011616Y005056D01*
X011650Y005121D01*
X011695Y005178D01*
X011751Y005225D01*
X011814Y005260D01*
X011884Y005282D01*
X011913Y005285D02*
X012020Y005285D01*
X012153Y005236D02*
X011772Y005236D01*
X011707Y005188D02*
X012217Y005188D01*
X012261Y005139D02*
X011664Y005139D01*
X011634Y005091D02*
X012293Y005091D01*
X012316Y005042D02*
X011612Y005042D01*
X011598Y004994D02*
X012330Y004994D01*
X012337Y004945D02*
X011593Y004945D01*
X011591Y004897D02*
X012338Y004897D01*
X012333Y004848D02*
X011596Y004848D01*
X011608Y004800D02*
X012319Y004800D01*
X012299Y004751D02*
X011628Y004751D01*
X011654Y004703D02*
X012269Y004703D01*
X012229Y004654D02*
X011693Y004654D01*
X011750Y004605D02*
X012170Y004605D01*
X012065Y004557D02*
X011857Y004557D01*
X011956Y003710D02*
X012022Y003705D01*
X012086Y003689D01*
X012146Y003661D01*
X012201Y003624D01*
X012248Y003578D01*
X012287Y003524D01*
X012316Y003464D01*
X012333Y003401D01*
X012340Y003335D01*
X012333Y003269D01*
X012315Y003205D01*
X012286Y003146D01*
X012248Y003092D01*
X012200Y003046D01*
X012145Y003009D01*
X012085Y002982D01*
X012021Y002966D01*
X011955Y002961D01*
X011883Y002969D01*
X011814Y002990D01*
X011751Y003025D01*
X011695Y003072D01*
X011650Y003128D01*
X011616Y003192D01*
X011596Y003262D01*
X011590Y003334D01*
X011596Y003406D01*
X011616Y003476D01*
X011650Y003541D01*
X011695Y003598D01*
X011751Y003645D01*
X011814Y003680D01*
X011884Y003702D01*
X011956Y003710D01*
X011825Y003683D02*
X012098Y003683D01*
X012185Y003635D02*
X011739Y003635D01*
X011686Y003586D02*
X012240Y003586D01*
X012277Y003537D02*
X011648Y003537D01*
X011623Y003489D02*
X012304Y003489D01*
X012322Y003440D02*
X011606Y003440D01*
X011595Y003392D02*
X012334Y003392D01*
X012339Y003343D02*
X011591Y003343D01*
X011593Y003295D02*
X012336Y003295D01*
X012327Y003246D02*
X011601Y003246D01*
X011615Y003198D02*
X012311Y003198D01*
X012288Y003149D02*
X011639Y003149D01*
X011672Y003101D02*
X012254Y003101D01*
X012206Y003052D02*
X011719Y003052D01*
X011790Y003004D02*
X012133Y003004D01*
D18*
X019685Y002735D03*
X022245Y002735D03*
X024465Y002625D03*
X024465Y003625D03*
X024465Y004625D03*
X022245Y004515D03*
X019685Y004515D03*
X006965Y010125D03*
X006965Y011125D03*
X006965Y012125D03*
X006965Y013125D03*
X006965Y014125D03*
X029965Y021625D03*
X030965Y021625D03*
X034965Y021625D03*
X035965Y021625D03*
D19*
X035465Y005125D03*
X033465Y005125D03*
X031465Y005125D03*
X028465Y005125D03*
X028465Y002125D03*
X031465Y002125D03*
X033465Y002125D03*
X035465Y002125D03*
D20*
X017465Y004125D03*
X017465Y004125D03*
X016465Y004125D03*
X015465Y004125D03*
X015465Y004125D03*
X016465Y005125D03*
D21*
X009465Y004125D03*
X007465Y004125D03*
D22*
X028965Y021625D03*
X033965Y021625D03*
M02*
